<?xml version="1.0" encoding="UTF-8" standalone="no"?>
<!-- Created with Inkscape (http://www.inkscape.org/) -->

<svg
   version="1.1"
   id="svg1"
   width="847.94629"
   height="890.85059"
   viewBox="0 0 847.94629 890.85059"
   sodipodi:docname="1.png"
   xml:space="preserve"
   xmlns:inkscape="http://www.inkscape.org/namespaces/inkscape"
   xmlns:sodipodi="http://sodipodi.sourceforge.net/DTD/sodipodi-0.dtd"
   xmlns="http://www.w3.org/2000/svg"
   xmlns:svg="http://www.w3.org/2000/svg"><defs
     id="defs1" /><sodipodi:namedview
     id="namedview1"
     pagecolor="#ffffff"
     bordercolor="#000000"
     borderopacity="0.25"
     inkscape:showpageshadow="2"
     inkscape:pageopacity="0.0"
     inkscape:pagecheckerboard="0"
     inkscape:deskcolor="#d1d1d1"
     showgrid="false"><inkscape:page
       x="0"
       y="0"
       width="847.94629"
       height="890.85059"
       id="page2"
       margin="0"
       bleed="0" /></sodipodi:namedview><g
     inkscape:groupmode="layer"
     inkscape:label="Image"
     id="g1"
     transform="translate(-87.281548,-292.22839)"><path
       style="fill:#000000"
       d="m 282.03155,1182.0601 c -0.9625,-0.5865 -1.75,-1.7349 -1.75,-2.5518 0,-0.8169 3.9375,-6.0944 8.75,-11.7278 25.5063,-29.8569 48.772,-59.0337 49.0505,-61.513 0.3074,-2.7364 1.8864,-14.5727 9.7463,-73.0574 5.9604,-44.35118 8.2474,-54.23558 18.6521,-80.61698 4.7547,-12.0556 17.7408,-38.7377 24.6395,-50.6259 7.384,-12.7246 12.0824,-31.57292 13.3048,-53.37412 2.5335,-45.1855 9.3525,-77.6023 31.0273,-147.5 3.3258,-10.725 7.3163,-24.45 8.8678,-30.5 2.5725,-10.0312 4.9685,-17.9749 7.8423,-26 0.5908,-1.65 2.6746,-7.95 4.6305,-14 1.9559,-6.05 4.7786,-13.475 6.2726,-16.5 l 2.7163,-5.5 9,-0.2941 c 13.7929,-0.4506 13.012,-1.0895 14.3154,11.7119 1.0689,10.4993 8.5835,55.3522 9.8084,58.5441 0.3802,0.9909 0.019,1.5381 -1.0168,1.5381 -1.6829,0 -2.2699,3.4722 -0.7462,4.414 0.4735,0.2926 3.457,6.6023 6.63,14.0216 5.8339,13.641 8.8965,18.3247 10.0377,15.3508 0.3136,-0.8173 -0.815,-4.973 -2.5081,-9.235 -6.9089,-17.3923 -12.9542,-48.3471 -17.5116,-89.6686 l -0.6195,-5.6173 10.1192,-0.7174 c 7.6462,-0.5421 10.2615,-1.088 10.7011,-2.2337 0.9609,-2.504 -1.7343,-3.283 -11.4143,-3.2991 l -9.2046,-0.015 -0.5563,-3.75 c -1.8825,-12.69 -3.8824,-22.3471 -4.7376,-22.8756 -2.2045,-1.3624 -3.737,1.999 -2.7926,6.1256 0.5035,2.2 1.2217,7.729 1.5961,12.2865 l 0.6807,8.2866 -10.374,-0.2866 -10.3741,-0.2865 -1.1452,-8 c -1.4015,-9.7901 -4.5823,-17.7792 -12.4455,-31.2589 -3.3103,-5.6746 -7.8395,-14.4628 -10.0649,-19.5293 -4.9867,-11.3528 -15.2241,-41.8331 -17.8885,-53.2599 -1.0859,-4.6572 -3.7826,-12.0641 -5.9927,-16.4597 l -4.0184,-7.9921 -53.2388,-0.2356 c -29.2814,-0.1295 -56.1639,-0.017 -59.7389,0.25 -6.9654,0.5203 -11.0581,0.497 -125.7009,-0.7177 -77.463301,-0.8207 -78.440101,-0.8807 -76.963201,-4.7295 0.508401,-1.325 3.117801,-1.5913 16.882801,-1.7228 8.9547,-0.086 17.2938,-0.069 18.5313,0.038 2.2451,0.193 2.25,0.1595 2.25,-15.3444 0,-14.0875 0.1634,-15.5486 1.75,-15.653 3.9955,-0.263 5.5414,0.4588 9.544,4.4562 5.5968,5.5895 10.5506,7.8447 16.3931,7.4631 6.1502,-0.4017 6.6732,-2.3459 0.8461,-3.1446 -6.2641,-0.8586 -11.6719,-3.8354 -15.8636,-8.7325 l -3.5453,-4.1419 -12.5261,0.1517 c -9.4427,0.1144 -13.2435,-0.2193 -15.4409,-1.3556 -2.9968,-1.5497 -4.5942,-4.0652 -3.6015,-5.6715 0.313,-0.5063 11.4431,-0.9097 25.1005,-0.9097 h 24.5382 l 6.7328,6.5 6.7329,6.5 20.4199,-2e-4 c 18.957,-1e-4 20.9931,-0.1787 28.4199,-2.4922 25.4131,-7.9165 45.3016,-7.6113 69.2641,1.0627 12.0648,4.3673 17.3124,4.4131 32.8793,0.2869 10.622,-2.8155 13.7203,-3.1904 29.7537,-3.5998 17.6324,-0.4502 17.9667,-0.4998 22.6076,-3.3553 19.4069,-11.9412 38.6757,-14.8936 60.4218,-9.258 l 10.203,2.6442 9.4378,-3.1442 c 5.1907,-1.7293 10.1327,-3.1441 10.9823,-3.1441 0.8495,0 3.3022,1.8 5.4504,4 l 3.9059,4 -8.9529,0.1183 c -10.3627,0.1369 -14.619,0.8737 -15.2038,2.6317 -0.3203,0.9628 3.024,1.25 14.5588,1.25 h 14.9746 l 5.3684,5.25 c 2.9526,2.8875 14.589,13.5586 25.8587,23.7136 32.2407,29.0517 43.2308,39.4562 42.0815,39.8393 -2.0817,0.6939 -17.2767,-4.9207 -25.2443,-9.3279 -4.4496,-2.4613 -8.5423,-4.475 -9.0948,-4.475 -0.5525,0 -5.1102,2.2123 -10.1283,4.9163 -7.9489,4.2832 -17.1362,7.548 -26.9402,9.5733 -1.9781,0.4086 -2.7123,1.0921 -2.4664,2.2961 0.2881,1.411 1.4055,1.686 6.3164,1.5543 7.2496,-0.1943 17.442,-3.8529 26.4376,-9.4899 5.7147,-3.581 6.7083,-3.9027 8.5,-2.7517 6.3501,4.0791 18.9581,9.8542 23.9545,10.9723 4.6034,1.0302 6.413,1.0428 8.9243,0.062 l 3.15,-1.2303 17.75,18.2636 c 9.7625,10.045 17.75,18.6361 17.75,19.0914 0,2.7873 -9.0868,28.1125 -13.6067,37.9223 -8.3324,18.0841 -9.7164,32.9201 -4.3349,46.4672 3.2747,8.2435 6.7954,20.9177 15.5156,55.8531 5.5784,22.3488 16.6766,64.9487 21.0019,80.6144 8.4602,30.6427 14.9214,71.2953 16.0344,100.8856 0.4841,12.8711 1.0754,17.2627 3.4864,25.8929 1.5968,5.7161 2.9033,11.18882 2.9033,12.16162 0,0.9728 4.8759,11.371 10.8352,23.1071 16.1509,31.807 24.0623,51.4222 29.5798,73.3383 2.7098,10.7642 4.6928,23.53338 12.5788,81.00008 2.7925,20.35 5.2935,38.392 5.5577,40.0933 0.4602,2.9633 25.1897,34.2675 46.8342,59.2857 13.6448,15.7716 13.8642,16.3228 6.9513,17.4649 -6.4095,1.059 -47.5386,0.7277 -51.6577,-0.4161 -6.8151,-1.8925 -11.0722,-6.9505 -18.8967,-22.4521 -6.6561,-13.1869 -7.5314,-14.4411 -11.3854,-16.3135 -13.6644,-6.6387 -16.3201,-15.5934 -9.2373,-31.147 1.6318,-3.5833 3.0043,-7.6631 3.0501,-9.066 0.232,-7.1203 -10.2874,-29.1071 -33.1575,-69.3036 -8.4035,-14.7699 -16.7516,-30.0699 -18.5514,-33.99998 -8.786,-19.1858 -12.7117,-37.8128 -14.151,-67.1456 -0.6244,-12.725 -0.7274,-13.1798 -4.8698,-21.5 -2.3275,-4.675 -6.3631,-15.25 -8.9679,-23.5 -6.0436,-19.14142 -13.2774,-37.34912 -27.9935,-70.46092 -19.9412,-44.8682 -26.6743,-64.8907 -29.354,-87.2906 l -0.8077,-6.7516 7.3749,-3.644 c 6.3414,-3.1334 8.1203,-4.6396 12.6946,-10.7484 2.9259,-3.9075 6.8006,-9.8045 8.6104,-13.1045 9.0218,-16.4504 20.6092,-33.9447 30.2984,-45.7439 3.6949,-4.4995 4.0817,-6.7561 1.158,-6.7561 -4.0816,0 -24.7843,28.4097 -36.8003,50.5 -13.0139,23.9248 -12.5308,23.4673 -25.7695,24.4034 -5.9022,0.4174 -9.3101,1.1039 -9.8547,1.9851 -0.4579,0.7409 -1.3797,4.7815 -2.0485,8.9793 -0.6688,4.1977 -2.4976,12.6308 -4.0641,18.7401 -4.8165,18.7843 -9.7125,31.0279 -33.9467,84.8921 -9.6082,21.3556 -15.0608,35.4339 -19.5592,50.5 -4.1023,13.73952 -7.5973,22.15432 -12.7979,30.81292 -3.3573,5.5897 -3.428,5.9441 -4.1258,20.6871 -1.137,24.0241 -4.3888,41.7225 -10.652,57.9751 -4.1118,10.67018 -6.1971,14.68558 -23.3825,45.02488 -17.6481,31.1565 -25.2608,46.1903 -28.9907,57.2521 l -2.7825,8.2522 3.2764,8.2478 c 3.8443,9.6773 4.6825,15.1634 3.0654,20.0633 -1.329,4.0271 -7.6652,10.2034 -12.5698,12.2527 -2.8389,1.1861 -4.179,3.1879 -9.8097,14.6528 -12.0107,24.4555 -11.4934,24.1806 -46.1814,24.5419 -17.123,0.1783 -26.5975,-0.093 -27.75,-0.7958 z m 38.8645,-16.2171 c 3.6722,-4.7159 22.868,-34.9601 29.8116,-46.9701 2.6489,-4.5817 2.7296,-6.7799 0.2488,-6.7799 -0.6639,0 -5.2332,6.4125 -10.1541,14.25 -4.9208,7.8375 -13.1635,20.645 -18.3169,28.4611 -5.1535,7.8162 -9.081,14.6787 -8.7279,15.25 1.2655,2.0477 3.1139,0.9573 7.1385,-4.2111 z m 404.6806,4.6216 c 0.3456,-0.3456 -0.8521,-2.4831 -2.6617,-4.75 -5.0111,-6.2776 -18.2546,-25.5854 -27.6842,-40.3609 -5.5423,-8.6845 -9.0512,-13.243 -10.1992,-13.25 -0.9625,-0.01 -1.75,0.7143 -1.75,1.6004 0,2.8658 23.9637,40.8378 32.9339,52.186 3.8576,4.8802 7.3492,6.5865 9.3612,4.5745 z m -370.9265,-70.1589 c 0.2677,-0.4331 3.0163,-11.7956 6.108,-25.25 12.0518,-52.4463 29.6821,-120.40108 37.1159,-143.06088 4.2797,-13.0452 4.7121,-16.9017 1.8951,-16.9017 -1.9964,0 -14.7992,36.7975 -22.6152,65 -10.4743,37.79508 -27.5407,117.45588 -25.655,119.74998 1.1725,1.4264 2.4405,1.6125 3.1512,0.4626 z m 330.0463,-0.075 c 0.8072,-1.3061 -1.7384,-14.7463 -11.0106,-58.133 -9.2409,-43.24038 -15.5976,-68.73578 -23.423,-93.94528 -7.5148,-24.2088 -10.7114,-32.0593 -13.054,-32.0593 -1.06,0 -1.9273,0.5029 -1.9273,1.1174 0,0.6146 2.4427,9.5021 5.4281,19.75 8.101,27.8078 24.2796,92.30528 31.0122,123.63258 5.1904,24.152 8.5354,37.7657 9.592,39.0388 1.371,1.652 2.5976,1.8691 3.3826,0.5989 z M 416.62825,909.06022 c 8.1152,-3.8146 15.6533,-13.72 15.6533,-20.5691 0,-9.92892 -7.5985,-21.79022 -15.6643,-24.45222 -6.5379,-2.1577 -7.5595,2.475 -1.225,5.5553 5.8792,2.859 10.1118,9.1361 10.6659,15.81822 0.5359,6.4627 -0.9718,9.8175 -6.7641,15.0505 -5.0986,4.6063 -8.2087,5.8307 -13.9188,5.4796 -4.5489,-0.2798 -5.8504,0.7361 -4.7194,3.6836 0.8692,2.2652 10.6898,1.9172 15.9724,-0.5659 z m 220.1533,-0.4671 c 0,-1.6968 -0.8336,-2.0759 -5.5,-2.501 -6.6099,-0.6021 -12.0733,-3.7371 -16.0288,-9.1975 -3.6248,-5.0038 -4.3764,-8.5537 -2.9577,-13.96782 1.7787,-6.7878 5.544,-11.7504 10.6185,-13.9951 3.1118,-1.3764 4.3887,-2.4985 4.1671,-3.6616 -0.8785,-4.6113 -10.4883,-1.0869 -15.2007,5.5749 -8.1755,11.5575 -7.4837,23.29622 1.9278,32.70762 5.634,5.6341 10.0673,7.5327 16.9738,7.2693 5.2571,-0.2004 6,-0.4764 6,-2.2288 z m -206.5,-43.02502 c 0,-2.2051 10.2083,-59.5137 13.6224,-76.475 8.0259,-39.8727 22.7762,-103.6178 24.3746,-105.3378 0.4283,-0.4608 2.2406,3.8142 4.0274,9.5 4.5357,14.4327 5.9835,17.8378 7.5842,17.8378 3.4242,0 0.6425,-12.105 -8.2334,-35.8296 -8.0259,-21.4529 -8.871,-23.1704 -11.4008,-23.1704 -2.7684,0 -2.5485,1.3592 2.4422,15.1015 4.2091,11.5899 4.3352,12.2486 2.684,14.0209 -1.9352,2.0772 -4.9979,12.4004 -10.9409,36.8776 -13.6892,56.3818 -17.7972,75.9567 -26.1514,124.6144 -3.3298,19.3939 -3.5988,23.013 -1.7583,23.655 1.1861,0.4137 3.75,-0.1294 3.75,-0.7944 z m 179.423,-0.3504 c 1.0175,-1.6462 -3.7969,-44.4491 -9.0122,-80.1246 -4.3207,-29.5556 -16.8715,-95.8212 -19.4167,-102.5155 -1.0737,-2.8241 -2.2162,-3.1266 -3.9444,-1.0444 -0.9443,1.1379 -0.1489,6.4384 3.7893,25.25 9.8015,46.8195 16.1087,87.0825 21.7446,138.8099 0.9588,8.8 2.1086,17.0125 2.5551,18.25 0.8103,2.2459 3.2601,3.0319 4.2843,1.3746 z m -57.0406,-125.3746 c 2.2453,-12.0142 4.4009,-18.8335 8.6491,-27.361 2.7095,-5.4389 4.9358,-10.4249 4.9474,-11.08 0.039,-2.1728 -2.0765,-2.5306 -4.1053,-0.6946 -2.505,2.267 -10.711,17.2131 -11.9861,21.831 -1.3053,4.7275 -2.715,16.7748 -2.1418,18.3046 0.8093,2.16 4.1821,1.4326 4.6367,-1 z m 10.7368,-124.8332 c 0.341,-2.4292 0.7913,-12.0258 1.0005,-21.3257 0.2894,-12.8672 0.083,-17.0098 -0.8635,-17.3312 -0.6841,-0.2324 -1.7142,0.8147 -2.2891,2.3267 -1.2083,3.1781 -2.5956,37.333 -1.6197,39.8762 1.1269,2.9367 3.1255,1.0578 3.7718,-3.546 z m -35.3192,-0.1168 c 1.9376,-1.9375 1.3821,-3.8 -1.1333,-3.8 -3.0911,0 -3.8089,0.8657 -2.5963,3.1315 1.1629,2.1729 2.0638,2.3344 3.7296,0.6685 z m 2.8704,-7.3833 c 0.3509,-0.9144 -0.2446,-2.4354 -1.4096,-3.6004 -1.662,-1.6619 -2.3907,-1.8171 -4.1389,-0.8815 -2.9288,1.5674 -2.6551,3.7038 0.6281,4.9029 3.8413,1.403 4.2333,1.3694 4.9204,-0.421 z m -44.6704,-49.3576 c 0,-4.4573 3.0237,-13.2331 6.0999,-17.7043 3.5172,-5.112 8.9157,-9.6864 14.8054,-12.5452 5.7621,-2.7969 19.0883,-5.8741 21.0577,-4.8624 0.8454,0.4343 3.3122,1.1107 5.4818,1.5031 9.3382,1.6889 20.3236,9.7912 24.4338,18.021 1.2649,2.5327 3.0056,8.1877 3.8683,12.5668 1.2388,6.2877 1.9335,7.9619 3.3039,7.9619 2.3277,0 3.0684,-2.3006 2.3598,-7.3294 -1.5237,-10.8149 -7.1682,-21.8523 -14.0949,-27.5619 -7.4268,-6.1218 -22.2861,-11.3438 -26.1407,-9.1867 -0.8928,0.4997 -2.3099,0.5444 -3.1491,0.099 -2.4369,-1.2921 -13.0003,0.8094 -19.5259,3.8845 -7.5952,3.579 -16.6,12.4987 -20.1115,19.9214 -3.1482,6.6549 -4.5002,17.8676 -2.317,19.2168 1.9478,1.2039 3.9285,-0.8054 3.9285,-3.985 z m -20,0.8348 c 0,-1.1583 -1.2798,-3.7458 -2.8441,-5.75 -4.3588,-5.5844 -5.0877,-7.2801 -3.9278,-9.1375 0.8081,-1.2939 -0.027,-2.6932 -4.1069,-6.8819 -2.8166,-2.8918 -5.1212,-5.6778 -5.1212,-6.1911 0,-0.5133 -0.675,-0.9334 -1.5,-0.9334 -1.9433,0 -1.9055,2.3151 0.1011,6.1955 1.4681,2.8389 1.4681,3.0451 0,2.4817 -0.8806,-0.3379 -1.6011,-0.4176 -1.6011,-0.1772 0,1.0418 8.8752,13.2505 12.8427,17.6665 4.7648,5.3034 6.1573,5.9202 6.1573,2.7274 z m -8,-39.4368 c 0,-0.2986 -1.7977,-2.9239 -3.9949,-5.8341 -2.1972,-2.9102 -4.605,-7.0534 -5.3506,-9.2071 -1.4599,-4.2168 -2.3871,-4.7868 -3.8958,-2.3951 -2.609,4.1361 5.7213,17.9792 10.8193,17.9792 1.3321,0 2.422,-0.2443 2.422,-0.5429 z m 16.7837,-28.554 c 0.3058,-1.6061 -12.4409,-13.8336 -32.2152,-30.9031 -5.4158,-4.675 -11.9217,-10.3564 -14.4577,-12.6255 -7.9405,-7.1048 -22.4618,-17.4535 -24.0592,-17.1459 -3.9039,0.7518 -1.4392,3.8676 11.6694,14.7521 7.5785,6.2927 18.4597,15.7338 24.1805,20.9803 23.6822,21.7185 30.2545,27.1582 32.4356,26.8458 1.1784,-0.1687 2.2793,-1.0254 2.4466,-1.9037 z m -86.7837,-40.2936 c 6.6146,-2.3863 9,-3.7853 9,-5.2784 0,-1.6837 -0.022,-1.6819 -9,0.7353 -16.6198,4.4746 -34.4565,3.185 -50.988,-3.6864 -10.9366,-4.5459 -13.012,-5.0422 -13.012,-3.1115 0,0.8258 1.0125,2.1509 2.25,2.9447 4.189,2.6868 17.2128,7.622 24.25,9.1891 9.1274,2.0327 30.9467,1.5714 37.5,-0.7928 z m -151.1899,-3.3595 c -0.309,-1.6066 -2.5274,-1.7718 -27.0733,-2.0163 -26.2304,-0.2613 -26.7368,-0.2281 -26.7368,1.75 0,1.9721 0.5936,2.0163 27.0734,2.0163 25.2456,0 27.0506,-0.1181 26.7367,-1.75 z m 28.7152,-5.139 c 4.9639,-1.0245 11.2239,-2.9311 13.9112,-4.2369 8.7019,-4.2284 4.6076,-6.3632 -5.7123,-2.9785 -8.8186,2.8923 -18.5496,4.2831 -30.9742,4.4269 -7.8574,0.091 -10.75,0.4603 -10.75,1.3724 0,3.5053 19.4272,4.3259 33.5253,1.4161 z m 177.4747,-21.4943 c 0,-0.7609 -1.0125,-1.6547 -2.25,-1.9864 -3.638,-0.9749 -13.5783,-0.717 -14.25,0.3697 -1.3512,2.1863 0.9703,3 8.5591,3 6.0944,0 7.9409,-0.3216 7.9409,-1.3833 z m -56,312.7346 c -16.775,-5.7154 -32.3,-10.7877 -34.5,-11.2717 -2.2,-0.4841 -9.5573,-2.5982 -16.3496,-4.6981 -9.3495,-2.8905 -11.7788,-3.9703 -10,-4.4448 1.2923,-0.3447 12.4746,-1.1731 24.8496,-1.8409 27.1181,-1.4635 28.7376,-1.6771 29.4134,-3.8805 0.9968,-3.2498 4.8704,-23.9794 23.5846,-126.2153 5.4255,-29.64 8.4357,-46.3671 12.5969,-70 0.8232,-4.675 1.7561,-9.3653 2.0732,-10.4229 0.5359,-1.7876 0.6752,-1.7524 1.9798,0.5 1.1627,2.0074 1.3141,8.8543 0.8828,39.9229 -0.2863,20.625 -0.7577,71.925 -1.0476,114 -0.5044,73.2085 -0.8828,87.5513 -2.3315,88.3733 -0.3583,0.2034 -14.3766,-4.3065 -31.1516,-10.022 z m 39.0304,-118.1846 c -0.032,-101.049 0.1105,-104.4241 3.8536,-91.5921 0.7902,2.709 4.7076,15.0504 8.7053,27.4254 3.9977,12.375 10.0127,31.7461 13.3667,43.0469 l 6.0981,20.5469 -2.9273,7.0988 c -1.61,3.9044 -4.5227,12.4333 -6.4726,18.9531 -1.95,6.5199 -6.0979,20.1793 -9.2176,30.3543 -3.1198,10.175 -6.9905,22.9653 -8.6016,28.423 -1.611,5.4576 -3.3443,10.6326 -3.8517,11.5 -0.5679,0.9709 -0.9341,-35.8323 -0.9529,-95.7563 z m -104.3221,84.3333 c 2.5099,-5.775 5.0648,-10.5003 5.6776,-10.5006 1.7717,-9e-4 42.6583,16.2898 42.1528,16.7953 -0.5577,0.5577 -41.2099,4.1046 -47.7163,4.1632 l -4.6776,0.042 z m 31.7917,-5.0988 c -10.45,-4.0812 -30.5795,-11.5569 -44.7323,-16.6127 -15.5167,-5.543 -25.243,-9.5031 -24.5,-9.9751 0.6778,-0.4305 12.5397,-0.7897 26.3599,-0.7981 18.9651,-0.012 25.3838,-0.3241 26.1726,-1.2746 1.0101,-1.217 9.1905,-20.0891 22.2111,-51.2407 3.4483,-8.25 9.4081,-22.425 13.244,-31.5 3.8359,-9.075 11.9207,-28.2 17.9662,-42.5 6.0455,-14.3 13.6775,-32.525 16.9599,-40.5 5.6819,-13.8045 8.8243,-19.4959 8.8146,-15.9642 -0.01,2.5334 -2.9504,19.875 -6.0195,35.4642 -1.6242,8.25 -5.1716,26.7 -7.8832,41 -15.9174,83.9426 -26.8048,139.2242 -27.7068,140.6836 -0.7096,1.1482 0.059,1.3979 -20.8865,-6.7824 z m -78.5,-29.8609 c 0,-0.3551 2.7559,-4.6225 6.1242,-9.483 l 6.1241,-8.8374 5.6259,2.5037 c 3.0942,1.377 11.4758,4.7226 18.6258,7.4345 7.15,2.7119 13.675,5.1989 14.5,5.5266 0.9914,0.3938 0.4169,0.8407 -1.6942,1.3179 -4.2445,0.9594 -49.3058,2.3648 -49.3058,1.5377 z m 45.5,-10.1358 c -11.7383,-4.7402 -47.2227,-18.2743 -64.3993,-24.5627 -5.7197,-2.0939 -10.5908,-3.9986 -10.8248,-4.2325 -0.2339,-0.234 12.2656,-0.3543 27.7768,-0.2674 l 28.202,0.1581 10.9598,-15 c 6.0279,-8.25 14.2848,-19.725 18.3487,-25.5 4.0638,-5.775 10.4371,-14.6797 14.1628,-19.7883 12.957,-17.766 43.791,-60.7464 47.5002,-66.2117 2.0531,-3.025 6.8921,-9.5149 10.7533,-14.422 6.2845,-7.9866 7.0205,-8.6243 7.0205,-6.0824 0,2.832 -4.6399,14.2547 -18.4838,45.5044 -13.9144,31.4088 -18.8312,42.6471 -33.0311,75.5 -22.4679,51.9815 -25.8126,59.5051 -26.4176,59.4232 -0.3121,-0.042 -5.5175,-2.0757 -11.5675,-4.5187 z m -81.8498,-32.6298 c -0.7377,-0.4652 1.7322,-3.6139 6.8869,-8.7795 l 8.037,-8.0541 18.963,8.2794 18.9629,8.2795 -6.5,0.2384 c -17.8775,0.6558 -45.3333,0.6772 -46.3498,0.036 z m 50.7845,-6.3648 c -9.8408,-4.3158 -24.2645,-10.4436 -53.9347,-22.9139 -12.65,-5.3167 -23.225,-9.9143 -23.5,-10.2169 -0.683,-0.7514 7.2134,0.2836 28.5,3.7356 9.9,1.6054 21.3756,3.2108 25.5012,3.5675 l 7.5011,0.6486 6.9989,-6.7493 c 6.7803,-6.5385 52.7801,-48.873 68.3337,-62.8887 4.2158,-3.799 17.287,-15.949 29.0472,-27 21.3214,-20.0358 25.5015,-23.5737 27.8679,-23.5862 2.4716,-0.013 1.1196,2.5468 -7.0953,13.4337 -12.3343,16.3462 -40.395,54.1503 -64.6214,87.0597 -24.441,33.2011 -35.133,47.4436 -36.0345,48.0008 -0.3462,0.2139 -4.2,-1.177 -8.5641,-3.0909 z m -54.9347,-33.4656 c -12.1,-1.5703 -23.6609,-2.8751 -25.6909,-2.8997 -4.9088,-0.059 -5.6636,-1.6624 -1.791,-3.8039 1.7312,-0.9574 7.5671,-4.3282 12.9688,-7.4907 5.4017,-3.1625 10.3652,-5.75 11.0302,-5.75 1.8089,0 13.5259,-6.7875 68.4829,-39.6716 27.5,-16.4549 54.95,-32.8057 61,-36.3351 6.05,-3.5295 13.925,-8.2717 17.5,-10.5383 4.8401,-3.0686 7.9684,-4.2936 12.25,-4.7967 3.3445,-0.393 5.75,-0.2886 5.75,0.2497 0,0.5089 -0.3947,1.0754 -0.877,1.2587 -0.7977,0.3032 -13.2245,11.63 -30.1039,27.439 -3.5855,3.3582 -13.9441,12.7458 -23.0191,20.8614 -9.075,8.1155 -22.1061,19.768 -28.9581,25.8943 -6.852,6.1262 -16.9223,15.1886 -22.3785,20.1386 -5.4562,4.95 -12.0795,10.9184 -14.7183,13.2632 l -4.7978,4.2631 -13.6675,-7.0729 c -10.9943,-5.6895 -27.8442,-12.9534 -30.048,-12.9534 -0.2375,0 -0.4318,0.4559 -0.4318,1.0131 0,0.5572 7.3933,4.5594 16.4294,8.8939 9.0362,4.3344 17.4613,8.6035 18.7225,9.4868 2.2658,1.587 2.2458,1.605 -1.6794,1.5058 -2.1848,-0.055 -13.8725,-1.3851 -25.9725,-2.9553 z m -8.1046,-29.8046 c -18.7723,-8.1171 -40.3933,-18.6458 -40.0995,-19.5272 0.1864,-0.5591 32.2585,-13.7413 71.2715,-29.2939 39.0129,-15.5525 73.4639,-29.4116 76.5577,-30.7979 5.3617,-2.4026 6.4971,-2.5207 24.25,-2.5207 10.2437,0 18.6249,0.355 18.6249,0.7888 0,0.8693 -1.5486,1.8204 -30.5,18.7328 -11,6.4259 -26.3,15.4086 -34,19.9616 -57.3516,33.9119 -77.4194,45.5022 -78.6183,45.4065 -0.7599,-0.061 -4.1288,-1.2982 -7.4863,-2.75 z m 345.1046,-62.9732 c -15.95,-15.7995 -39.0786,-37.7128 -51.397,-48.6964 l -22.397,-19.9701 7.7991,-0.2948 c 4.2895,-0.1621 9.0807,0.152 10.647,0.698 3.7488,1.3069 3.6118,-0.083 -0.3357,-3.4042 -3.0694,-2.5828 -3.5516,-2.6671 -13.4405,-2.3522 l -10.2568,0.3266 -5.9879,-4.948 c -3.2934,-2.7214 -5.8177,-5.2235 -5.6097,-5.5601 0.2081,-0.3366 2.2284,-1.2227 4.4897,-1.9689 2.2613,-0.7463 4.5734,-2.2202 5.1381,-3.2753 0.5647,-1.0551 1.502,-8.2754 2.083,-16.045 l 1.0563,-14.1267 -3.8547,-3.0247 c -8.544,-6.7043 -13.2159,-11.7422 -15.8188,-17.0582 -3.8936,-7.9517 -5.0985,-15.8694 -3.6664,-24.0931 3.5378,-20.3155 18.235,-31.7404 42.5589,-33.0833 12.2892,-0.6785 22.2055,0.8684 30.395,4.7414 5.4443,2.5747 6.0974,3.2013 6.0974,5.8492 0,3.9596 4.2788,8.1229 13.6132,13.246 7.6378,4.1919 8.8156,5.9641 5.3868,8.1054 -2.6856,1.6772 -2.519,3.9317 0.5,6.7679 2.9659,2.7863 3.1475,4.4195 0.6888,6.1933 -2.9544,2.1316 -3.3969,3.6715 -1.7361,6.0427 1.4642,2.0904 1.4182,2.3575 -0.692,4.0142 -2.0966,1.6461 -2.1371,1.8701 -0.5586,3.0876 1.1084,0.8547 1.4991,2.0891 1.12,3.5385 -0.3349,1.2807 0.1913,3.6618 1.2391,5.6075 1.4841,2.7557 1.6092,3.8469 0.676,5.895 -1.3702,3.0072 -5.4776,4.2948 -16.5104,5.1757 l -7.7732,0.6205 0.2732,17.0692 0.2732,17.0691 10.5,2.7502 c 5.775,1.5126 13.0803,3.7218 16.234,4.9092 l 5.734,2.1591 7.766,-2.7435 c 9.2588,-3.2708 24.6921,-4.3472 34.5874,-2.4122 8.0146,1.5672 19.8122,6.1303 26.9278,10.4151 l 5.6412,3.3969 15.8048,0.4538 c 13.6083,0.3907 17.4726,0.8915 27.8048,3.6032 6.6,1.7323 13.8593,3.1508 16.1317,3.1523 2.2724,10e-4 10.1474,-1.9987 17.5,-4.4448 23.7278,-7.8939 37.2976,-8.1247 61.868,-1.0526 12.0847,3.4783 12.2846,3.5 32.169,3.5 h 20.0088 l 7.1411,-6.5175 7.1411,-6.5176 23.5201,0.2676 c 23.2211,0.2641 23.5241,0.2949 23.8271,2.421 0.5996,4.2075 -3.0106,5.3465 -16.9454,5.3465 h -12.6935 l -3.1221,3.942 c -3.912,4.9394 -8.6878,7.9305 -14.1516,8.8632 -6.1099,1.0431 -6.3075,3.1948 -0.2934,3.1948 6.343,0 12.5572,-3.136 17.0297,-8.5941 2.9619,-3.6145 4.2127,-4.4059 6.9644,-4.4059 h 3.3542 l 0.2754,15.75 0.2754,15.75 17.6463,0.2727 c 13.2933,0.2054 17.9217,0.6044 18.7623,1.6173 0.8435,1.0163 0.7094,1.6824 -0.549,2.7274 -1.7833,1.4808 -55.425,2.2658 -233.3183,3.4143 -56.2589,0.3632 -81.6634,0.857 -82.1203,1.5962 -0.3638,0.5887 -0.9628,5.4133 -1.3311,10.7212 -0.8151,11.7472 -3.3111,32.6553 -4.3391,36.3473 -0.7212,2.5901 -1.894,1.564 -29.7508,-26.0299 z m 36.1913,-28.9165 c 14.9848,-15.2625 27.2595,-28.3266 27.277,-29.0313 0.053,-2.1269 -2.8252,-2.5424 -5.4946,-0.7933 -4.1727,2.734 -15.7618,14.043 -35.1564,34.3065 -16.3697,17.1031 -18.2875,19.4552 -17.327,21.25 0.5941,1.11 1.6146,2.0181 2.2679,2.0181 0.6534,0 13.4482,-12.4875 28.4331,-27.75 z m 64.4708,-8.6596 c 8.2259,-1.5803 16.2011,-4.4845 22.6965,-8.2651 3.8423,-2.2363 4.1837,-2.7115 2.8828,-4.0125 -1.3009,-1.3009 -2.1962,-1.112 -7.5593,1.5954 -11.0193,5.5625 -20.0834,7.5281 -34.6821,7.521 -7.15,0 -14.661,-0.5079 -16.6912,-1.1209 -2.7964,-0.8444 -4.0911,-0.8223 -5.3403,0.091 -1.3818,1.0103 -1.4269,1.3901 -0.2786,2.3431 3.78,3.1372 26.6226,4.2202 38.9722,1.8477 z m 166.716,-3.4939 c 0.758,-0.4801 1.0689,-1.3732 0.691,-1.9847 -0.4763,-0.7706 -8.1093,-1.0814 -24.8781,-1.0129 -26.4143,0.108 -34.8133,0.7362 -35.4451,2.6511 -0.3238,0.9812 5.8954,1.2468 28.9208,1.2347 16.1333,-0.01 29.9534,-0.4081 30.7114,-0.8882 z m -54.383,-6.0946 c 4.7054,-1.789 1.5739,-3.0015 -7.8041,-3.0217 -11.4804,-0.025 -20.9232,-1.3629 -30.645,-4.3428 -7.7694,-2.3815 -10.046,-2.4212 -10.046,-0.1753 0,1.7393 7.5556,4.5669 19,7.1106 6.7795,1.5068 25.9279,1.7855 29.4951,0.4292 z m -175.278,-19.636 c 3.6628,-2.2637 -12.2424,-5.0474 -20.8544,-3.6499 -4.5324,0.7355 -4.2978,3.0408 0.3873,3.8053 2.0625,0.3366 4.425,0.7801 5.25,0.9857 1.9327,0.4816 14.0634,-0.4281 15.2171,-1.1411 z m -80.2171,-0.8659 c 3.2323,-1.1404 9.0159,-1.5 24.1258,-1.5 16.3112,0 19.8742,-0.2494 19.8742,-1.3915 0,-0.7654 -1.0125,-1.6316 -2.25,-1.9249 -1.9426,-0.4603 -35.2438,-1.1282 -39.9232,-0.8007 -2.2378,0.1567 -7.9801,5.0601 -7.2704,6.2083 0.7095,1.148 0.4277,1.1786 5.4436,-0.5912 z m 2.8084,-38.575 c -0.1971,-0.5912 -0.7859,-1.075 -1.3084,-1.075 -0.5225,0 -1.1112,0.4838 -1.3083,1.075 -0.1971,0.5913 0.3917,1.075 1.3083,1.075 0.9167,0 1.5055,-0.4837 1.3084,-1.075 z m -17.5439,-33.5227 c 1.1456,-1.1457 -0.4928,-3.4023 -2.4703,-3.4023 -3.456,0 -8.826,-3.1607 -10.3382,-6.0851 -2.744,-5.3064 -1.7043,-11.4898 2.1804,-12.9667 1.3,-0.4943 2.3636,-1.3295 2.3636,-1.856 0,-1.8786 -4.0877,-2.2647 -6.5936,-0.6228 -7.5241,4.93 -4.6688,19.196 4.7733,23.8489 3.2957,1.6241 8.9382,2.2306 10.0848,1.084 z m 24.8173,-39.4023 c 4.5602,0 5.9182,-0.3398 5.9182,-1.4809 0,-0.8145 -1.1517,-1.77 -2.5595,-2.1233 -3.2792,-0.8231 -11.3046,0.068 -12.6403,1.4041 -1.3868,1.3868 0.035,3.4774 1.8828,2.7683 0.8143,-0.3125 4.1438,-0.5682 7.3988,-0.5682 z M 92.337749,453.1982 c -0.7232,-1.3515 -0.6616,-2.1827 0.2148,-2.8977 0.69,-0.563 9.635001,-1.1572 20.395701,-1.355 18.0474,-0.3318 21.7084,-0.8101 19.917,-2.6024 -0.4123,-0.4125 -9.8248,-0.883 -20.9166,-1.0457 -19.885701,-0.2916 -24.667101,-1.0309 -24.667101,-3.8142 0,-0.6996 0.5625,-1.6361 1.25,-2.081 0.6875,-0.445 11.2632,-1.0341 23.501401,-1.3091 l 22.2514,-0.5 v 8.75 8.75 h -20.4648 c -19.063501,0 -20.534301,-0.1297 -21.479001,-1.8949 z m 797.942401,-1.3551 v -3.25 l 19.7393,0.5 c 18.3093,0.4638 19.7655,0.6363 20.0998,2.3802 0.1982,1.0341 -0.2464,2.2647 -0.988,2.7347 -0.7416,0.47 -9.7859,0.8614 -20.0984,0.8698 l -18.7503,0.015 z m 2e-4,-10 v -3.75 h 20.9182 c 11.5051,0 21.6301,0.2732 22.5,0.607 2.1501,0.8251 2.0001,4.0988 -0.2427,5.2991 -1.0035,0.5371 -11.129,1.1154 -22.5011,1.2852 l -20.6766,0.3087 z M 91.531549,434.062 c -1.2375,-0.4974 -2.25,-1.7664 -2.25,-2.82 0,-2.821 2.3613,-3.1201 24.750001,-3.1352 l 20.25,-0.014 v 3.5 3.5 l -20.25,-0.063 c -11.1375,-0.035 -21.262501,-0.4704 -22.500001,-0.9678 z m 798.750001,-2.5002 c 0,-2.1336 0.5639,-3.7478 1.4246,-4.0781 0.7836,-0.3007 10.3461,-0.1741 21.25,0.2814 l 19.8254,0.828 v 2.5 c 0,2.2848 -0.4737,2.5561 -5.5,3.1511 -3.025,0.3582 -12.5875,0.6957 -21.25,0.75 l -15.75,0.099 z"
       id="path1"
       inkscape:export-filename="path1.svg"
       inkscape:export-xdpi="95.8125"
       inkscape:export-ydpi="95.8125" /></g></svg>
