<?xml version="1.0" encoding="UTF-8" standalone="no"?>
<!-- Created with Inkscape (http://www.inkscape.org/) -->

<svg
   version="1.1"
   id="svg1"
   width="560.50824"
   height="848.14764"
   viewBox="0 0 560.50824 848.14764"
   sodipodi:docname="1.png"
   xml:space="preserve"
   xmlns:inkscape="http://www.inkscape.org/namespaces/inkscape"
   xmlns:sodipodi="http://sodipodi.sourceforge.net/DTD/sodipodi-0.dtd"
   xmlns="http://www.w3.org/2000/svg"
   xmlns:svg="http://www.w3.org/2000/svg"><defs
     id="defs1" /><sodipodi:namedview
     id="namedview1"
     pagecolor="#ffffff"
     bordercolor="#000000"
     borderopacity="0.25"
     inkscape:showpageshadow="2"
     inkscape:pageopacity="0.0"
     inkscape:pagecheckerboard="0"
     inkscape:deskcolor="#d1d1d1"
     showgrid="false"><inkscape:page
       x="0"
       y="0"
       width="560.50824"
       height="848.14764"
       id="page2"
       margin="0"
       bleed="0" /></sodipodi:namedview><g
     inkscape:groupmode="layer"
     inkscape:label="Image"
     id="g1"
     transform="translate(-266.21243,-307.48843)"><path
       style="fill:#000000"
       d="m 554.54188,1154.7395 c -2.8374,-0.4152 -10.8047,-2.6079 -17.7051,-4.8727 l -12.5463,-4.1179 -31.2949,0.6512 c -35.6387,0.7416 -40.3676,0.3758 -42.0198,-3.2503 -3.2895,-7.2196 7.6115,-32.0994 25.4517,-58.0892 6.4638,-9.4166 11.8148,-21.5753 34.0466,-77.3618 21.4176,-53.74336 21.7266,-54.60232 21.7266,-60.39804 0,-6.77847 2.9006,-27.88036 5.5061,-40.0568 4.1572,-19.42843 10.6952,-34.57223 20.7229,-48 11.6926,-15.65709 35.2608,-36.27475 54.643,-47.80207 9.0066,-5.35654 9.523,-5.87786 8.6251,-8.70688 -1.24,-3.90711 0.055,-4.40323 -53.4971,20.49095 -47.4354,22.05064 -98.8393,37.80901 -150.5,46.13721 -14.5584,2.34695 -20.088,2.75054 -38.5,2.81004 -23.1981,0.075 -33.1942,-0.93834 -50,-5.06852 -23.3213,-5.73137 -39.5463,-17.05144 -50.9339,-35.53608 -14.9024,-24.19008 -16.0132,-55.71907 -3.1881,-90.4956 3.7728,-10.23036 7.9005,-18.51644 14.4796,-29.0674 l 5.1372,-8.23836 37.8939,-0.26164 c 34.6761,-0.23943 37.9866,-0.40866 38.9856,-1.99289 0.8354,-1.32472 0.7217,-2.10129 -0.4842,-3.30723 -1.3476,-1.34753 -6.709,-1.67643 -36.9831,-2.26877 l -35.407,-0.69276 -0.7603,-14.5 c -1.8205,-34.72091 1.572,-66.02871 10.2751,-94.82367 13.3801,-44.2693 27.561,-72.47385 52.8508,-105.11552 10.2192,-13.1901 35.1546,-37.27408 32.6686,-31.55326 -0.4762,1.09585 -1.8929,5.81745 -3.1482,10.49245 -5.2931,19.7125 -1.29,42.40905 10.5826,60 5.0115,7.42517 16.3231,19.48217 23.1932,24.72131 4.1169,3.13961 4.8519,4.30135 6.2548,9.88613 2.7513,10.9533 11.1249,32.60868 17.4555,45.14256 1.7361,3.4375 3.0015,6.25 2.8118,6.25 -0.1897,0 -1.844,-2.08749 -3.6763,-4.63888 -3.0658,-4.2691 -3.4361,-4.4956 -4.6456,-2.84149 -1.1249,1.53829 -0.9263,2.51027 1.3775,6.74305 3.3702,6.19222 9.611,13.35008 13.3052,15.26044 1.6049,0.82994 5.2681,5.22308 8.5188,10.21647 3.1367,4.81822 9.9182,14.70165 15.0698,21.96316 5.1517,7.26152 9.3667,13.63509 9.3667,14.16349 0,1.91744 -8.4678,7.11585 -19.2573,11.82223 -18.6983,8.15613 -25.819,16.84514 -29.3477,35.81153 -0.921,4.95 -1.797,9.49589 -1.9466,10.10199 -0.1496,0.60609 -2.2243,1.3894 -4.6103,1.74069 -2.386,0.35129 -13.9613,2.36586 -25.723,4.47683 l -21.3849,3.83814 -3.222,-7.07883 c -1.7721,-3.89335 -3.5417,-8.09132 -3.9325,-9.32882 -0.8071,-2.55593 -4.3224,-3.07374 -5.2075,-0.76709 -0.313,0.8156 0.8261,4.83432 2.5313,8.93048 1.7053,4.09617 3.1005,7.91151 3.1005,8.47855 0,1.26344 -3.3912,2.11676 -22.1827,5.58178 -16.8266,3.10269 -18.411,3.83451 -16.9011,7.806 0.5689,1.49616 1.6484,2.72028 2.3991,2.72028 0.7506,0 12.3492,-2.03442 25.7747,-4.52092 61.6487,-11.41784 88.5773,-16.0241 114.91,-19.65587 14.3827,-1.98364 20.6062,-2.27205 48.5,-2.2476 33.7403,0.0296 52.186,1.32493 97.5,6.847 47.9368,5.8417 61.2516,8.13464 68.3932,11.77801 5.5149,2.81349 12.9506,10.75895 16.1079,17.2121 1.466,2.99656 3.1503,8.58025 3.7429,12.4082 1.4318,9.2505 0.1477,13.59313 -7.5089,25.39353 -10.2018,15.72313 -31.1902,50.72805 -50.2365,83.78555 -10.3855,18.02545 -32.113,53.75203 -41.355,68 -22.2485,34.29973 -49.3501,77.24394 -64.4396,102.10864 -7.1311,11.7508 -11.704,21.4262 -11.704,24.7632 0,2.3176 0.9092,3.7646 3.851,6.1287 6.1808,4.967 31.3552,22.1257 48.149,32.818 26.4892,16.8653 29.9631,18.5939 45.5,22.6413 17.2029,4.4813 18.2543,4.907 19.6416,7.9517 1.7045,3.741 0.3589,7.2183 -3.2848,8.4885 -3.6237,1.2632 -94.9601,1.3475 -103.5156,0.095 z m 27.0498,-18.8751 c 1.6218,-1.7921 1.5242,-2.0172 -2.0951,-4.8362 -6.7731,-5.2756 -37.7238,-25.8821 -47.6409,-31.7186 -5.3109,-3.1256 -10.1035,-5.4065 -10.6502,-5.0686 -0.5468,0.3379 -1.4321,1.4327 -1.9674,2.433 -0.8467,1.5821 0.8105,2.9346 12.7446,10.4014 7.5449,4.7205 20.918,13.5072 29.718,19.526 8.8,6.0188 16.4927,10.9881 17.095,11.0429 0.6022,0.055 1.8604,-0.7461 2.796,-1.7799 z m -52.7531,-88.8732 c 27.7666,-41.7353 75.0488,-117.26212 97.0216,-154.97878 3.13,-5.37266 7.8012,-13.36846 10.3804,-17.76846 23.6018,-40.26294 28.1002,-48.62618 26.9202,-50.04802 -2.8766,-3.46606 -4.5805,-1.55952 -15.4601,17.29802 -28.9355,50.15359 -62.6192,106.0687 -89.307,148.25 -8.741,13.81564 -11.2178,17.65494 -34.0302,52.74984 -7.2396,11.1374 -13.1628,20.6099 -13.1628,21.05 0,1.1486 2.2141,3.2007 3.45,3.1974 0.5775,0 6.962,-8.889 14.1879,-19.75 z m 152.6969,-237.41347 c 0.8358,-1.32728 0.3097,-2.48481 -2.5862,-5.69026 -5.6322,-6.23417 -7.0523,-9.76186 -7.5416,-18.73465 -0.5297,-9.71485 1.2764,-14.7234 7.901,-21.91023 3.3784,-3.66517 4.0705,-4.99203 3.2677,-6.26481 -1.7985,-2.85116 -3.2065,-2.47226 -8.2121,2.2099 -3.0791,2.88017 -5.9191,6.84821 -7.6303,10.66129 -2.4302,5.41518 -2.6864,7.01258 -2.3638,14.73432 0.4276,10.2368 3.6562,18.37389 9.4631,23.85052 3.803,3.58667 5.9621,3.90734 7.7022,1.14392 z m -229.8348,-1.76312 c 41.8675,-4.00259 74.9875,-9.42373 108,-17.67764 30.2175,-7.5551 48.5,-13.39662 48.5,-15.49644 0,-2.21938 -1.4815,-3.89657 -3.4419,-3.89657 -1.2253,0 -7.1397,1.54587 -13.143,3.43526 -25.1578,7.91779 -72.5471,17.91271 -106.9407,22.555 -34.6688,4.67942 -55.1419,6.14904 -92.3972,6.63255 -20.0325,0.25999 -36.795,0.70277 -37.25,0.98396 -1.459,0.90175 -0.8842,4.25822 0.9228,5.3881 3.0309,1.89517 69.8434,0.55248 95.75,-1.92422 z m -33.5291,-144.06109 c 8.266,-12.04957 15.0291,-22.36525 15.0291,-22.92375 0,-1.44331 -4.0681,-3.4394 -4.9492,-2.42845 -0.404,0.46345 -3.3599,4.66764 -6.5688,9.34264 -17.6636,25.73401 -22.482,33.19475 -22.482,34.81081 0,2.08475 1.9535,4.33596 3.131,3.6082 0.446,-0.27563 7.574,-10.35989 15.8399,-22.40945 z m -75.0423,-48.11625 c 3.4097,-9.68173 7.9608,-16.75969 14.4456,-22.46608 10.5793,-9.30955 23.9942,-13.61324 35.9457,-11.53197 8.385,1.46017 9.3507,1.40546 10.1098,-0.5728 1.0755,-2.80264 -1.6295,-4.28102 -10.089,-5.514 -16.0964,-2.34609 -29.3442,2.22519 -41.6679,14.37797 -7.9378,7.82767 -13.7059,17.5369 -15.6972,26.42248 -1.2759,5.69308 -0.6973,7.63852 2.1447,7.21123 1.6606,-0.24966 2.7191,-1.99474 4.8083,-7.92683 z m 373.4735,529.01873 c -12.1353,-1.4163 -24.8371,-4.6206 -36.5981,-9.2324 -16.2055,-6.3548 -16.789,-6.4823 -33.1353,-7.2411 l -14.8313,-0.6884 -7.6687,-4.5244 c -11.3631,-6.704 -36.4808,-22.3867 -37.9163,-23.6737 -2.3165,-2.077 7.9169,-20.4788 20.327,-36.552 4.1459,-5.3698 9.2529,-16.6403 24.8627,-54.8695 20.8965,-51.17653 29.0352,-75.62366 34.4104,-103.36257 l 3.9303,-20.28223 11.2463,-18.49287 c 31.8278,-52.33618 36.2861,-59.04644 40.8287,-61.4525 1.4532,-0.76968 4.8922,-3.41894 7.6422,-5.88723 4.637,-4.16198 4.8819,-4.60924 3.3743,-6.16044 -1.4978,-1.54099 -1.8682,-1.54723 -4.7068,-0.0793 l -3.0812,1.59333 1.6098,-4.25336 c 2.2182,-5.86096 2.2083,-18.82689 -0.019,-25.35835 -0.9576,-2.80776 -3.0997,-7.24722 -4.7602,-9.86547 -1.6604,-2.61825 -2.8712,-4.9082 -2.6906,-5.08878 0.9122,-0.91219 9.5832,1.96387 11.6684,3.87022 1.3168,1.20397 3.9062,5.42615 5.7542,9.38262 4.6251,9.90243 7.0422,11.34986 3.8515,2.30641 -2.3434,-6.64163 -1.9064,-8.01076 1.3981,-4.38103 1.6802,1.84557 3.3563,5.31589 4.1053,8.5 2.0895,8.88284 4.8742,15.4449 8.4966,20.02263 2.1988,2.77854 3.0819,4.67647 2.4636,5.29472 -0.53,0.53002 -0.9636,5.74524 -0.9636,11.58937 0,9.9822 -0.1484,10.76502 -2.4491,12.92649 -6.8503,6.43551 -7.2241,23.42983 -0.5619,25.54434 1.3019,0.41321 2.011,1.51201 2.011,3.11632 0,2.6212 4.0179,7.39636 6.2045,7.37378 0.7125,-0.007 5.5705,-1.30572 10.7955,-2.88524 5.225,-1.57953 9.6753,-2.71065 9.8896,-2.51361 0.8779,0.80707 -33.7024,61.24325 -60.0284,104.91223 -11.4331,18.96495 -46.2292,87.62142 -49.7785,98.21842 -1.1455,3.4202 -2.0827,7.9842 -2.0827,10.1423 0,3.5183 0.6293,4.5065 6.089,9.5613 13.6092,12.5997 44.6966,36.0945 63.9321,48.3176 9.0355,5.7417 10.2272,6.1946 25.4789,9.6843 16.8411,3.8533 19.5,5.2326 19.5,10.1154 0,5.3568 -0.6957,5.4716 -32.3215,5.3309 -16.0482,-0.071 -32.3726,-0.5025 -36.2764,-0.9581 z m -67.5423,-59.2432 c 0.8454,-1.0185 -0.1803,-3.3779 -4.3673,-10.0466 -3.0096,-4.7935 -5.9307,-9.5725 -6.4913,-10.62 -0.8304,-1.5516 0,-3.4869 4.4897,-10.4443 3.03,-4.6968 5.5091,-8.9779 5.5091,-9.5136 0,-0.8657 -3.1088,-3.0443 -4.3441,-3.0443 -0.9764,0 -12.6559,19.7763 -12.6559,21.4296 0,1.6403 5.5308,11.7866 10.8042,19.8204 2.5355,3.8626 5.1216,4.7492 7.0556,2.4188 z M 503.20068,873.10126 c -2.475,-0.1613 -12.5837,-0.80776 -22.4638,-1.43658 -21.2284,-1.35108 -23.8595,-1.9667 -16.3483,-3.82508 24.758,-6.12546 55.9922,-15.81549 73.8472,-22.91017 11.1281,-4.42176 28.39,-11.85358 33.2296,-14.30644 3.793,-1.92243 3.2345,-1.16677 -5.3493,7.2372 -9.1511,8.95935 -18.3689,20.50405 -24.0461,30.11615 l -2.6306,4.45397 -7.7703,0.65683 c -7.4544,0.63012 -18.9294,0.63582 -28.4684,0.0141 z m 255.3567,-24.87004 c -0.9608,-2.50389 1.5147,-4.36428 8.6251,-6.48185 7.2213,-2.15059 20.0713,-8.76841 23.7682,-12.24071 1.839,-1.72731 2.25,-3.18821 2.25,-7.99803 0,-6.65742 -1.4636,-6.95373 -2.5261,-0.51143 -0.385,2.33462 -1.1641,4.81907 -1.7312,5.52101 -1.7685,2.18882 -16.9196,9.89014 -23.9669,12.18244 -8.6702,2.82015 -11.2758,2.50943 -11.2758,-1.34462 0,-2.62472 0.4525,-3.00252 5,-4.17397 8.0674,-2.07823 21.875,-7.42281 23.5,-9.09622 1.3467,-1.38695 1.1566,-1.47282 -1.8607,-0.84057 -1.8483,0.38731 -7.3816,2.00751 -12.296,3.60044 -10.0259,3.24969 -12.6597,3.53838 -13.4517,1.47439 -1.1161,-2.90842 1.9467,-5.86628 9.9517,-9.61087 4.4861,-2.09855 9.3942,-4.12347 10.9067,-4.49982 3.2446,-0.80735 3.2526,-0.90072 0.8616,-10.10465 -2.2894,-8.81268 -2.6254,-9.3628 -5.7183,-9.3628 -3.2635,0 -11.42,-8.12716 -14.672,-14.61931 -1.3446,-2.68438 -3.2369,-7.35569 -4.2051,-10.38069 -2.7782,-8.68071 -6.5918,-15.19382 -8.4459,-14.4246 -4.2778,1.77478 -4.8097,1.52434 -8.4682,-3.98749 -4.4119,-6.64674 -5.3057,-7.18713 -14.2073,-8.58938 -3.7922,-0.59737 -8.9198,-2.20466 -11.3948,-3.57176 -10.1179,-5.58875 -15.499,-7.68775 -24.2757,-9.46926 -12.5112,-2.53954 -65.0983,-8.28323 -104.7243,-11.43823 -47.3963,-3.77367 -42.4096,-2.60324 -49.078,-11.51928 -26.6364,-35.61442 -56.2559,-79.03731 -67.1885,-98.5 -9.5635,-17.02533 -22.1301,-46.88532 -25.6726,-61.0014 -0.8271,-3.29593 -2.6831,-5.45776 -10.5272,-12.26189 -11.6132,-10.07344 -17.2547,-17.04862 -22.9898,-28.42442 -10.3512,-20.53245 -10.0408,-43.94912 0.7991,-60.27316 8.3356,-12.55265 21.4545,-23.49945 33.157,-27.66705 3.8739,-1.37961 9.4551,-2.31444 15.7507,-2.63816 11.2798,-0.58001 15.3374,0.54926 32.146,8.94656 11.4032,5.69689 17.1001,9.40367 35.1033,22.84054 7.15,5.33649 18.3187,12.99149 24.8194,17.0111 13.0442,8.06573 13.7181,8.90616 19.0487,23.75577 7.3917,20.59102 10.3258,39.6945 11.6071,75.57201 0.5095,14.26796 1.3276,26.34295 1.818,26.83331 0.522,0.52207 1.4749,0.18774 2.2991,-0.80673 1.1277,-1.36051 1.3711,-5.99325 1.2237,-23.29238 -0.2736,-32.1234 -3.0136,-52.007 -10.5893,-76.8441 -1.8872,-6.1875 -3.2739,-11.25 -3.0814,-11.25 0.1924,0 4.3302,2.21012 9.1951,4.91139 14.4112,8.002 41.1943,18.80323 43.3387,17.4779 2.4391,-1.50742 -0.398,-3.83393 -8.4821,-6.95571 -11.4757,-4.43147 -34.4518,-15.9247 -42.697,-21.35811 -5.2858,-3.48318 -7.5506,-5.89856 -12.1238,-12.92942 -5.3136,-8.16903 -8.5526,-12.50584 -22.0384,-29.50766 l -5.6621,-7.13839 4.6621,-0.64173 c 9.3879,-1.29223 24.8113,-10.2683 37.1609,-21.62678 l 6.487,-5.96633 -1.3654,-4.88258 c -2.4844,-8.8838 -3.0328,-12.79103 -3.0768,-21.92248 -0.083,-17.28859 5.0526,-29.67739 17.404,-41.98225 13.8641,-13.8119 26.9473,-18.75798 49.5525,-18.73328 16.6984,0.0182 25.0768,1.99971 40,9.45993 8.4953,4.2469 11.9947,6.71953 18.3288,12.95108 9.4314,9.27851 9.9365,11.78435 2.6712,13.24986 -2.475,0.49924 -4.6622,1.03692 -4.8604,1.19484 -0.1982,0.15793 2.1924,3.29625 5.3125,6.97404 8.612,10.1513 8.8003,10.55137 8.5558,18.17161 -0.1192,3.71474 -0.2295,7.87907 -0.2451,9.25407 -0.016,1.375 2.7314,8.62238 6.1044,16.10528 3.373,7.48291 6.1328,14.09489 6.1328,14.6933 0,2.04491 -4.4405,4.20142 -8.6511,4.20142 -5.5973,0 -7.3489,1.89836 -7.3489,7.96444 0,5.13345 -0.8468,6.03556 -5.6652,6.03556 -1.3758,0 -2.3371,0.3375 -2.1361,0.75 0.201,0.4125 0.9513,1.91186 1.6673,3.33192 1.1655,2.31157 1.0242,2.99216 -1.3497,6.5 -2.343,3.46235 -4.1617,4.53375 -15.6356,9.21113 l -12.9842,5.29305 -4.1983,-3.28919 c -12.1683,-9.53347 -25.5676,-20.42253 -28.3618,-23.04859 -3.3242,-3.12407 -4.7561,-3.07567 -5.61,0.18962 -0.6766,2.58746 -0.085,3.24745 12.5236,13.97555 5.9125,5.03062 10.75,9.34399 10.75,9.58525 0,0.24126 -3.5755,0.16294 -7.9455,-0.17406 -7.2435,-0.55857 -8.4229,-0.37915 -13.3483,2.03064 -5.783,2.82933 -22.5564,19.26035 -26.0978,25.56505 l -1.8916,3.36751 2.5106,-0.63012 c 1.8427,-0.46247 3.5432,0.12382 6.3916,2.20362 6.0152,4.39206 12.9394,12.33047 15.9236,18.25583 1.4911,2.96054 3.2708,5.71015 3.9551,6.11025 13.6157,7.96133 25.7825,23.77717 32.0155,41.61731 2.5883,7.40835 6.1383,26.83705 5.0943,27.881 -0.3265,0.32654 -4.5942,-0.63346 -9.4838,-2.13336 -8.4126,-2.58062 -15.8885,-3.13978 -16.3946,-1.22624 -0.126,0.4764 3.8091,2.18237 8.7448,3.79106 21.3725,6.96603 38.2422,19.59459 52.7874,39.51645 0.5149,0.70534 -0.3745,5.09474 -2.2289,11 -5.5218,17.58333 -6.4584,38.23543 -1.7751,39.13737 1.5358,0.29576 1.7447,-0.59297 1.76,-7.48773 0.024,-10.73633 1.8422,-18.47603 9.9432,-42.32332 10.4562,-30.7806 16.0395,-60.55449 16.0395,-85.53438 0,-7.40609 0.1877,-13.46562 0.4171,-13.46562 0.2294,0 2.4794,0.88401 5,1.96446 4.5322,1.94275 4.5828,2.01737 4.5812,6.75 -0.01,18.5994 -5.046,72.90573 -8.5111,91.71616 -1.3101,7.11185 -2.1541,13.29935 -1.8756,13.75 0.9232,1.49379 4.2447,0.84845 4.7898,-0.93062 0.2949,-0.9625 1.6821,-8.45504 3.0826,-16.65008 3.9772,-23.27111 6.65,-52.75223 6.8429,-75.47812 0.195,-22.96383 1.0081,-20.72739 -8.8269,-24.27966 -11.9725,-4.32429 -22.4097,-18.18537 -27.9116,-37.06775 -1.554,-5.33341 -2.8867,-8.21539 -3.7497,-8.1084 -1.483,0.18387 -16.6451,6.80707 -17.469,7.63089 -1.0133,1.01336 4.8472,8.58147 8.7277,11.27067 6.4815,4.49164 6.2963,9.68198 -0.3825,10.72287 -1.7682,0.27557 -4.1751,0.81177 -5.3487,1.19154 -1.6856,0.54548 -2.4473,0.0948 -3.627,-2.14573 -12.0766,-22.9374 -12.9442,-25.13875 -10.9739,-27.84559 0.4041,-0.55515 2.6472,-2.24903 4.9847,-3.76419 2.3375,-1.51515 4.25,-3.19844 4.25,-3.74064 0,-1.50585 -1.0029,-1.19762 -7.5,2.30525 -5.3912,2.9066 -5.9873,3.54286 -5.8745,6.27078 0.1725,4.16833 5.818,16.79401 10.4483,23.36621 2.1032,2.98543 3.573,5.83439 3.266,6.33103 -0.8366,1.35374 -5.5177,-0.1147 -8.2348,-2.58321 -2.5194,-2.28898 -9.8105,-16.83244 -12.5137,-24.96082 -3.167,-9.52282 -2.2844,-10.89522 10.5296,-16.37405 38.879,-16.62322 45.2146,-18.48506 49.6514,-14.591 2.543,2.23189 22.5655,28.93598 39.109,52.15978 l 12.7953,17.96194 0.6617,24.22607 c 0.9795,35.86188 0.8019,78.89751 -0.3772,91.40221 -1.9644,20.83268 -4.7294,31.35362 -16.7881,63.88035 -2.2186,5.9842 -4.4985,11.3451 -5.0665,11.91313 -1.0245,1.02447 -13.8022,-2.94791 -58.6074,-18.22005 -17.0438,-5.80951 -18.5589,-6.54126 -28.5,-13.76433 -30.4137,-22.09839 -38.5175,-29.3573 -54.49,-48.8091 -5.4195,-6.6 -11.662,-13.90456 -13.8723,-16.23236 l -4.0186,-4.23235 2.4409,-2.68988 c 1.3425,-1.47944 5.0558,-5.49565 8.2518,-8.92493 12.7933,-13.72684 23.2356,-29.57328 29.6646,-45.01627 3.536,-8.49386 3.684,-9.98088 1.1295,-11.34801 -2.3899,-1.279 -3.258,-0.28931 -6.0934,6.9463 -5.4667,13.95065 -17.0837,30.80539 -31.8513,46.2118 -12.2329,12.76205 -21.0108,19.78063 -30.2723,24.20487 -4.0206,1.92062 -7.3637,3.39952 -7.4292,3.28644 -0.065,-0.11309 -2.1565,-5.45645 -4.6467,-11.87413 l -4.5275,-11.66852 4.743,-2.58148 c 2.6087,-1.41982 5.4564,-2.58148 6.3284,-2.58148 0.8719,0 3.9293,2.925 6.7941,6.5 5.444,6.79353 8.0088,7.94007 9.8917,4.42186 1.4242,-2.66109 0.5566,-4.92186 -1.8888,-4.92186 -1.1353,0 -3.6408,-2.24372 -6.178,-5.53232 -5.7867,-7.50069 -6.4559,-7.76443 -12.2505,-4.82811 -10.1383,5.13749 -8.9771,5.63885 -15.125,-6.5302 -6.4396,-12.74646 -14.9625,-27.02946 -21.5538,-36.12062 l -4.7207,-6.51126 -0.6372,-14.48874 c -0.9906,-22.52618 -5.4394,-39.49571 -14.4158,-54.98875 -4.2254,-7.29285 -17.9657,-21.78884 -23.1995,-24.47552 -3.2838,-1.68566 -3.483,-1.68359 -4.75,0.0492 -2.0669,2.82662 -1.6733,3.62656 4.1356,8.40563 18.7656,15.43865 28.488,39.56401 30.2154,74.97728 l 0.6563,13.45657 5.9095,8.26164 c 17.0518,23.83887 28.4761,47.7788 42.8651,89.82523 l 2.3956,7 20,6.61755 c 11,3.63966 26.975,9.64654 35.5,13.34864 45.9852,19.9697 82.9276,34.09712 120.2033,45.96783 l 17.7033,5.63776 4.4241,5.21411 c 9.0787,10.70013 15.6179,22.25488 30.3981,53.71411 l 11.5107,24.5 -0.9613,18.18366 c -0.7606,14.38755 -1.3224,18.73486 -2.6912,20.82389 -2.0422,3.11677 -10.7654,7.22737 -24.3456,11.4723 -10.7663,3.36537 -15.0169,3.76874 -15.8847,1.50741 z m -46.8567,-129.01971 c 0,-1.63619 -4.2453,-2.81328 -34.5,-9.56584 -52.3511,-11.68425 -75.1724,-17.69609 -108.7718,-28.65392 -16.197,-5.28237 -17.3766,-5.52799 -18.9571,-3.94747 -1.0629,1.06287 -1.3319,2.0247 -0.7283,2.60401 1.371,1.31581 32.8043,11.19839 54.0808,17.00293 25.2921,6.90004 105.5314,25.25201 107.8764,24.67299 0.55,-0.1358 1,-1.08652 1,-2.1127 z m -138,-54.98125 c 0,-1.45002 -1.08,-2.31136 -4,-3.19028 -2.2,-0.66219 -7.8573,-2.35243 -12.5717,-3.75611 l -8.5716,-2.55213 -11.0991,-22.24389 c -10.5125,-21.0683 -20.203,-37.85468 -24.3682,-42.21214 -1.739,-1.81915 -2.005,-1.8448 -3.5111,-0.33862 -1.5062,1.50619 -0.9515,2.77025 7.3221,16.68614 4.9235,8.28107 12.9675,23.35354 17.8757,33.49436 l 8.9239,18.43787 13.5,4.02919 c 7.425,2.21606 14.175,3.93981 15,3.83056 0.825,-0.10925 1.5,-1.09248 1.5,-2.18495 z m 116.3233,-20.01376 c -0.1967,-0.92932 -4.1148,-2.84533 -10.0053,-4.89283 -18.1046,-6.29301 -31.3312,-15.1014 -41.2242,-27.45384 -4.8148,-6.0117 -6.9942,-7.36287 -7.8647,-4.87587 -1.3323,3.80657 18.1452,23.33428 28.9236,28.99818 8.0837,4.24785 23.591,9.70149 27.6706,9.73123 2.0129,0.0147 2.7305,-0.41786 2.5,-1.50687 z m -199.4528,-94.69824 c 1.4358,-2.27611 0.091,-3.60175 -12.7234,-12.54675 -15.0934,-10.53546 -15.1618,-10.57007 -17.0793,-8.65252 -3.1405,3.1405 -3.4605,2.85088 23.3581,21.13824 3.7084,2.52871 4.8811,2.53982 6.4446,0.061 z m 138.1413,-152.97075 c 2.9057,-3.45323 3.0156,-4.12095 0.9589,-5.82788 -1.2676,-1.05199 -1.9408,-0.88265 -3.9336,0.98945 l -2.4043,2.25867 -2.5945,-2.59453 c -8.1591,-8.15912 -9.7284,-27.16648 -2.8138,-34.08108 3.2033,-3.20329 4.3587,-3.19049 8.2591,0.0915 3.9912,3.35839 5.967,2.0697 4.0229,-2.62385 -4.2787,-10.32982 -17.7358,-6.4012 -21.5008,6.27689 -4.2178,14.20273 1.5832,32.96282 11.8863,38.43997 2.6732,1.42109 5.2378,0.49596 8.1198,-2.92913 z m 69.4577,-17.09225 c 1.8868,-5.90257 0.3106,-7.10043 -8.4475,-6.41972 -7.3929,0.57461 -10.522,1.38762 -10.522,2.73385 0,2.02651 15.8107,9.54236 17.1292,8.14258 0.346,-0.3674 1.1742,-2.37292 1.8403,-4.45671 z m 63.6723,429.5387 c -0.7053,-4.26735 -0.8518,-12.25 -0.2247,-12.25 0.2294,0 2.4134,0.85573 4.8533,1.90162 3.8443,1.64784 4.5781,2.46013 5.4986,6.08665 l 1.0623,4.18503 -4.1657,1.89139 c -5.7463,2.60908 -6.317,2.46165 -7.0238,-1.81469 z m 47.3582,-12.12557 c 0,-4.09972 -1.7667,-8.56751 -10.7255,-27.12443 -10.6675,-22.09621 -21.1622,-39.21868 -30.931,-50.46532 -2.3815,-2.74174 -3.9307,-5.3475 -3.4595,-5.81875 0.4694,-0.46939 5.75,-0.8802 11.7347,-0.9129 16.8919,-0.0923 26.9936,3.90457 38.2057,15.1166 16.4205,16.42058 16.9555,42.24759 1.3531,65.33037 -2.8812,4.2625 -5.4498,7.75 -5.708,7.75 -0.2583,0 -0.4695,-1.74401 -0.4695,-3.87557 z m -99.6018,-287.01375 c -3.3559,-0.96076 -8.3047,-3.0379 -10.9973,-4.61587 l -4.8957,-2.86904 3.4974,-0.86356 c 4.5458,-1.12242 6.9974,-4.11171 6.9974,-8.53203 0,-2.92661 -0.7884,-4.27208 -4.5,-7.6797 -2.475,-2.2723 -4.5,-4.62687 -4.5,-5.23239 0,-1.42436 8.0766,-4.67249 8.9999,-3.61946 0.3865,0.44075 1.4969,3.72637 2.4677,7.30137 2.2841,8.41151 5.6537,15.10508 11.2009,22.25 l 4.4642,5.75 -3.3164,-0.0712 c -1.824,-0.0392 -6.0621,-0.85732 -9.4181,-1.81808 z m -47.9754,-29.79642 c -11.6728,-15.79977 -11.8683,-16.144 -10.8399,-19.08625 0.7844,-2.24431 1.6426,-2.78468 4.84,-3.0476 2.1375,-0.17577 4.9495,-0.0528 6.2489,0.27337 l 2.3625,0.59295 -2.0171,2.1652 c -2.8485,3.05742 -2.5279,6.41785 1.513,15.85873 1.9416,4.53633 3.3945,8.65513 3.2286,9.15287 -0.1659,0.49774 -2.5671,-2.16143 -5.336,-5.90927 z m -125.1813,-29.06426 c -8.3144,-5.9125 -20.0893,-14.35 -26.1665,-18.75 -6.0772,-4.4 -14.9644,-10.10779 -19.7494,-12.68398 -7.8755,-4.24018 -8.4541,-4.74568 -6.1055,-5.33513 4.0274,-1.0108 20.2548,1.32249 28.7698,4.13673 7.6586,2.53119 7.7131,2.57442 16.6689,13.21094 10.6212,12.61452 23.5019,30.17144 22.1355,30.17144 -0.2397,0 -7.2384,-4.8375 -15.5528,-10.75 z"
       id="path2" /></g></svg>
