<?xml version="1.0" encoding="UTF-8" standalone="no"?>
<!-- Created with Inkscape (http://www.inkscape.org/) -->

<svg
   version="1.1"
   id="svg1"
   width="537.84656"
   height="514.59314"
   viewBox="0 0 537.84656 514.59314"
   sodipodi:docname="1.png"
   xml:space="preserve"
   xmlns:inkscape="http://www.inkscape.org/namespaces/inkscape"
   xmlns:sodipodi="http://sodipodi.sourceforge.net/DTD/sodipodi-0.dtd"
   xmlns="http://www.w3.org/2000/svg"
   xmlns:svg="http://www.w3.org/2000/svg"><defs
     id="defs1" /><sodipodi:namedview
     id="namedview1"
     pagecolor="#ffffff"
     bordercolor="#000000"
     borderopacity="0.25"
     inkscape:showpageshadow="2"
     inkscape:pageopacity="0.0"
     inkscape:pagecheckerboard="0"
     inkscape:deskcolor="#d1d1d1"
     showgrid="false"><inkscape:page
       x="0"
       y="0"
       width="537.84656"
       height="514.59314"
       id="page2"
       margin="0"
       bleed="0" /></sodipodi:namedview><g
     inkscape:groupmode="layer"
     inkscape:label="Image"
     id="g1"
     transform="translate(-252.08595,-404.16992)"><path
       style="fill:#000000"
       d="m 544.41025,917.72717 c -0.43323,-0.701 -24.2989,-1 -73.80902,-0.9246 l -73.16876,0.1114 -0.25964,-46.8276 -0.25963,-46.8275 -7.89648,-10.6353 c -14.78879,-19.918 -20.48347,-22.0665 -59.08425,-22.2915 -27.59871,-0.1608 -31.06838,-0.6627 -37.67679,-5.4498 -7.01723,-5.0833 -8.32912,-10.0588 -6.8868,-26.1192 l 0.76334,-8.5 -4.59987,-5.3316 c -4.76525,-5.5234 -5.54698,-8.3228 -3.26605,-11.6959 2.96489,-4.3845 2.80375,-5.4953 -1.33629,-9.2119 -4.77339,-4.2852 -5.04985,-6.7907 -1.57649,-14.2876 3.86201,-8.3357 2.29012,-10.2907 -10.92105,-13.58237 -9.41072,-2.34476 -12.95361,-5.72167 -12.26286,-11.68836 0.2863,-2.47305 2.12599,-6.87696 4.47076,-10.70225 13.21507,-21.55923 24.74267,-41.62343 26.01334,-45.27716 1.14461,-3.29123 1.33025,-7.0908 0.84146,-17.22284 -0.51709,-10.71863 -0.29149,-14.57941 1.28552,-22 6.97991,-32.84376 27.4055,-58.84495 56.17924,-71.51455 5.20989,-2.29401 14.64754,-5.66686 20.97254,-7.49521 6.325,-1.82836 12.85,-3.84359 14.5,-4.47831 1.65,-0.63471 6.57559,-1.37494 10.94577,-1.64495 4.37017,-0.27001 8.30767,-0.7146 8.75,-0.98797 0.44232,-0.27338 0.80423,-9.48461 0.80423,-20.46941 0,-16.36007 0.25763,-20.07124 1.42447,-20.51899 0.99836,-0.38311 1.26442,-1.53289 0.88943,-3.84368 -0.50936,-3.13881 -0.32574,-3.37322 3.82553,-4.8837 2.39831,-0.87264 32.93557,-11.7257 67.86057,-24.1179 34.925,-12.3922 63.984,-23.18809 64.57555,-23.99086 0.88795,-1.205 3.50438,-1.36564 15,-0.92092 7.65845,0.29627 35.59121,1.08366 62.0728,1.74976 l 48.14835,1.2111 2.58437,2.45279 2.58437,2.4528 0.0173,44.62755 c 0.0141,36.48273 0.26653,44.83442 1.38298,45.76099 0.75114,0.62339 6.11787,2.46782 11.92608,4.09873 12.84778,3.6076 28.43521,10.39463 36.58787,15.931 13.37176,9.08059 26.94813,25.60347 34.22568,41.65376 1.63968,3.61625 4.19927,10.92941 5.68796,16.25148 2.51018,8.97391 2.68824,10.86728 2.45232,26.07703 -0.29478,19.00463 -0.20055,19.32385 11.02803,37.36062 11.80773,18.96705 20.72636,35.29708 20.72636,37.95 0,5.66534 -6.46112,10.08991 -18,12.32639 -3.98831,0.77302 -8,4.01611 -8,6.46733 0,0.9109 1.12311,3.8699 2.49581,6.5756 3.48193,6.8632 3.23122,8.8285 -1.70818,13.3893 l -4.21237,3.8896 2.21237,4.4298 c 1.2168,2.4365 2.21237,4.8644 2.21237,5.3956 0,0.5311 -2.07812,3.6318 -4.61805,6.8904 l -4.61805,5.9248 0.77639,8 c 1.15821,11.9342 0.88424,15.2004 -1.69511,20.2089 -1.75873,3.4151 -3.72056,5.3337 -7.84518,7.6725 l -5.5,3.1186 -28.5,0.5606 c -25.66976,0.5048 -29.06119,0.7692 -34.151,2.662 -6.88311,2.5598 -10.57433,4.8957 -12.02779,7.6115 -0.70322,1.314 -1.03114,8.6302 -0.91266,20.3628 l 0.18492,18.312 -2.6149,2.4234 c -1.43819,1.3329 -8.32172,6.2678 -15.29673,10.9664 -6.97501,4.6987 -15.15684,10.2626 -18.18184,12.3642 -3.025,2.1017 -14.725,10.0875 -26,17.7462 -11.275,7.6588 -23.875,16.261 -28,19.1161 -13.74326,9.5122 -29.9645,20.3748 -30.42606,20.3748 -0.25075,0 -0.74402,-0.4662 -1.09616,-1.0359 z m 0.27443,-230.71408 -0.25221,-221.75 h -70 -70 l -0.25222,221.75 -0.25222,221.74998 h 70.50444 70.50443 z M 453.5222,845.13637 c -1.40034,-3.6493 1.08838,-4.3733 15.03271,-4.3733 h 13.37756 v -7.9285 c 0,-10.5702 -0.5428,-11.0715 -11.9881,-11.0715 -9.21337,0 -10.66786,-0.6991 -8.84159,-4.25 0.75443,-1.4668 2.33067,-1.75 9.74243,-1.75 6.36846,0 9.16816,-0.3925 10.00682,-1.4031 0.7366,-0.8875 1.05716,-4.4291 0.87245,-9.6388 l -0.29201,-8.2357 -13.5,-0.4154 c -7.425,-0.2285 -13.93989,-0.8534 -14.47753,-1.3887 -0.63658,-0.6339 -0.59911,-1.5741 0.10745,-2.6958 0.93122,-1.4784 3.13963,-1.7616 15.58473,-1.9984 19.46576,-0.3704 19.28535,-0.5064 19.28535,14.5369 0,7.3108 -0.41657,11.4357 -1.25707,12.4476 -1.01568,1.2228 -0.96768,2.206 0.25,5.1203 0.91105,2.1804 1.50707,6.7301 1.50707,11.5041 0,6.4753 -0.3732,8.3717 -2.07258,10.5322 l -2.07258,2.6348 h -15.32043 c -13.2262,0 -15.40577,-0.2223 -15.94468,-1.6267 z m -0.58973,-100.8262 c 0,-13.304 0.97237,-17.2789 4.42144,-18.0745 1.14321,-0.2636 7.02856,-0.5903 13.07856,-0.726 l 11,-0.2466 v -9.5 -9.5 l -13.6536,-0.2776 c -11.42166,-0.2322 -13.75391,-0.539 -14.26725,-1.8767 -1.40676,-3.666 1.08532,-4.3457 15.93251,-4.3457 19.38823,0 18.98834,-0.3369 18.98834,16 0,16.045 0.0466,16 -16.59173,16 -13.7893,0 -13.22787,-0.5089 -12.70918,11.5209 l 0.30091,6.9791 13.65043,0.2776 c 10.54531,0.2144 13.92842,0.6125 14.87245,1.75 0.96372,1.1612 0.95888,1.7895 -0.0229,2.9724 -1.01659,1.2249 -4.34013,1.5 -18.12245,1.5 h -16.87755 z m 1.25,-77.68496 c -1.79877,-1.81621 -1.54078,-3.63614 0.68426,-4.82694 1.06384,-0.56935 7.58884,-1.03518 14.5,-1.03518 h 12.56574 v -7.8 c 0,-4.73334 -0.4718,-8.2718 -1.2,-9 -0.75079,-0.75079 -4.48107,-1.2 -9.96482,-1.2 -7.63626,0 -8.89785,-0.24858 -9.79802,-1.93056 -1.96136,-3.66485 1.06627,-5.06944 10.92728,-5.06944 10.34817,0 10.03556,0.3452 10.03556,-11.08179 v -7.91821 h -13.37756 c -13.91973,0 -16.43233,-0.72591 -15.04314,-4.34605 0.87436,-2.27856 5.7335,-2.92336 18.88404,-2.50591 15.11138,0.4797 15.88948,1.13003 16.3791,13.68953 0.24474,6.27808 -0.094,9.82871 -1.1873,12.44536 -1.3737,3.28773 -1.37317,3.97502 0.005,6.73809 1.13257,2.27029 1.44383,5.41438 1.1873,11.99334 -0.48994,12.56514 -0.26145,12.40819 -18.63058,12.79776 -10.87083,0.23055 -15.04378,-0.0177 -15.96709,-0.95 z m 2.98545,-89.89866 c -3.88482,-1.56071 -4.35302,-4.99803 -4.03548,-29.62635 0.2675,-20.74689 0.49332,-23.46292 2.08298,-25.05332 1.46991,-1.4706 3.8992,-1.84274 13.83597,-2.1195 13.28651,-0.37007 16.95133,0.49972 18.75136,4.45035 1.52918,3.35618 1.54595,45.37772 0.0195,48.72803 -0.61065,1.34023 -2.20683,2.93641 -3.54706,3.54706 -2.90172,1.32211 -23.85794,1.37911 -27.10722,0.0737 z m 24.76455,-27.99621 v -22.03275 l -11.25,0.28275 -11.25,0.28275 -0.27142,20.473 c -0.14928,11.26015 -0.0509,21.04765 0.21862,21.75 0.35657,0.92921 3.4944,1.277 11.52141,1.277 h 11.03139 z m 92,340.74263 c 9.075,-6.1951 23.475,-16.024 32,-21.842 8.525,-5.818 20.45,-14.0355 26.5,-18.2611 6.05,-4.2255 14.0375,-9.7125 17.75,-12.1933 l 6.75,-4.5104 v -12.4515 c 0,-10.073 -0.27049,-12.4516 -1.41597,-12.4516 -1.52138,0 -5.66549,4.8927 -9.95228,11.75 -3.18894,5.1012 -4.63175,5.3983 -4.63175,0.9537 0,-8.1821 18.88663,-29.7113 31.14798,-35.5062 9.9003,-4.679 16.12474,-5.5465 33.85067,-4.7179 29.47979,1.378 35.60282,0.3596 40.04932,-6.6615 1.9103,-3.0165 2.0415,-4.2271 1.44326,-13.3181 -0.99633,-15.1405 -0.9686,-15.2822 4.0382,-20.6349 2.45881,-2.6287 4.47057,-5.4062 4.47057,-6.1722 0,-0.766 -1.33359,-3.2338 -2.96352,-5.4838 l -2.96353,-4.091 3.46427,-2.1411 c 6.93453,-4.2858 8.09897,-8.8038 3.98886,-15.477 -2.72967,-4.4319 -3.22446,-8.67549 -1.20677,-10.35002 0.72562,-0.60222 4.43812,-1.79744 8.25,-2.65606 9.15786,-2.06279 12.21101,-3.34218 13.97051,-5.85423 2.67828,-3.82377 1.80801,-8.80061 -2.75141,-15.73464 -3.41589,-5.19491 -19.3593,-32.94652 -26.65988,-46.40503 -1.05338,-1.94188 -1.57735,-5.11624 -1.48557,-9 0.60705,-25.68928 0.50237,-28.08636 -1.57215,-36 -4.59395,-17.52444 -17.26206,-38.3802 -30.45528,-50.13913 -13.08149,-11.65934 -36.63613,-21.32729 -60.71608,-24.92078 -10.55335,-1.57489 -12.67013,-2.38408 -11.44063,-4.37346 0.45692,-0.73932 2.82213,-0.88864 7.11287,-0.44904 5.85998,0.60037 6.4314,0.49167 6.46328,-1.2295 0.4501,-24.30221 -0.32858,-74.95152 -1.1602,-75.46549 -0.58097,-0.35906 -4.50296,0.6665 -8.71554,2.27902 -4.21258,1.61252 -9.90923,3.74105 -12.65923,4.73006 -2.75,0.98901 -9.5,3.62966 -15,5.8681 -5.5,2.23845 -16.525,6.61475 -24.5,9.72511 -26.11729,10.18612 -38.47132,15.60953 -40.25,17.66972 -1.65476,1.91665 -1.74962,13.49034 -1.74289,212.66617 0.004,115.8516 0.29398,213.6767 0.6446,217.3892 0.49809,5.2739 0.98857,6.7472 2.24289,6.7369 0.88297,-0.01 9.0304,-5.0819 18.1054,-11.277 z m -177,-229.7689 V 507.76309 l -2.75,0.001 c -4.1417,0.002 -17.73765,2.56372 -26.75,5.04007 -31.51913,8.66058 -50.6377,23.97313 -64.36615,51.55247 -8.51017,17.09624 -11.4412,32.65145 -9.16882,48.65972 1.38715,9.77214 0.69187,13.34643 -3.93838,20.24637 -1.47632,2.2 -6.19878,10.525 -10.49435,18.5 -4.29556,7.975 -9.81789,17.37524 -12.27184,20.88944 -5.82374,8.33993 -6.75216,11.09067 -5.26458,15.59808 1.41125,4.27613 4.16215,5.85059 14.12417,8.08388 7.46443,1.67339 10.87995,3.59605 10.87995,6.12455 0,0.7623 -1.38612,4.0493 -3.08025,7.3045 -3.69671,7.103 -3.40128,8.5776 2.77645,13.8581 l 4.57902,3.9141 -2.63761,3.458 c -1.45069,1.902 -2.63761,4.3778 -2.63761,5.5019 0,1.1241 2.05411,4.1274 4.56469,6.674 l 4.56468,4.6302 -0.69471,12.7799 c -0.83516,15.3633 0.10692,18.2083 7.04572,21.2777 6.65954,2.9458 12.2972,3.3099 29.85348,1.928 24.28432,-1.9116 34.45676,0.3133 47.57096,10.4044 5.77323,4.4424 16.09518,15.8062 16.09518,17.7197 0,0.5344 0.45,0.6935 1,0.3536 0.65956,-0.4077 1,-52.3438 1,-152.55907 z M 564.26485,449.36432 c 11.64219,-4.61933 31.06762,-12.29646 43.16762,-17.0603 12.1,-4.76384 23.35,-9.25548 25,-9.98142 1.65,-0.72593 5.25,-2.05545 8,-2.95447 2.75,-0.89902 5.66197,-2.05347 6.47104,-2.56544 3.88585,-2.45892 2.52985,-2.53953 -76.97104,-4.5756 l -27.5,-0.70429 -58,20.73078 c -31.9,11.40193 -59.91284,21.39842 -62.25076,22.21441 -2.33792,0.81599 -3.99886,1.8912 -3.69099,2.38936 0.32462,0.52523 26.61615,0.90574 62.58315,0.90574 h 62.02337 z"
       id="path3" /></g></svg>
