<?xml version="1.0" encoding="UTF-8" standalone="no"?>
<!-- Created with Inkscape (http://www.inkscape.org/) -->

<svg
   version="1.1"
   id="svg1"
   width="527.828"
   height="698.52942"
   viewBox="0 0 527.828 698.52942"
   sodipodi:docname="1.png"
   xml:space="preserve"
   xmlns:inkscape="http://www.inkscape.org/namespaces/inkscape"
   xmlns:sodipodi="http://sodipodi.sourceforge.net/DTD/sodipodi-0.dtd"
   xmlns="http://www.w3.org/2000/svg"
   xmlns:svg="http://www.w3.org/2000/svg"><defs
     id="defs1" /><sodipodi:namedview
     id="namedview1"
     pagecolor="#ffffff"
     bordercolor="#000000"
     borderopacity="0.25"
     inkscape:showpageshadow="2"
     inkscape:pageopacity="0.0"
     inkscape:pagecheckerboard="0"
     inkscape:deskcolor="#d1d1d1"
     showgrid="false"><inkscape:page
       x="0"
       y="0"
       width="527.828"
       height="698.52942"
       id="page2"
       margin="0"
       bleed="0" /></sodipodi:namedview><g
     inkscape:groupmode="layer"
     inkscape:label="Image"
     id="g1"
     transform="translate(-302.1618,-383.88846)"><path
       style="fill:#000000"
       d="m 561.16189,1082.1111 c -25.0208,-1.8062 -45.5194,-5.9109 -68,-13.6164 -66.2931,-22.7229 -111.9499,-72.24003 -127.4873,-138.26648 -3.9743,-16.8887 -5.7016,-31.1864 -6.1277,-50.7228 -0.3917,-17.9607 -0.5095,-18.8719 -2.895,-22.3872 -4.273,-6.2966 -4.9324,-10.5344 -4.9621,-31.89 l -0.028,-20 -2.7814,-4.7316 c -1.5298,-2.6024 -3.6914,-5.21863 -4.8035,-5.81385 -2.7041,-1.44717 -5.9097,-6.85624 -5.8994,-9.95457 0.01,-1.375 1.1431,-4.48506 2.5299,-6.91126 l 2.5216,-4.41126 -4.0336,-3.87586 c -5.5209,-5.30498 -5.748,-9.62672 -0.9759,-18.56957 3.6132,-6.77097 3.86,-11.61443 0.6923,-13.5871 -1.2375,-0.77064 -7.3844,-1.90064 -13.6597,-2.51113 -17.7468,-1.72647 -23.0903,-5.3302 -23.0903,-15.5722 0,-4.89192 5.4154,-19.1931 23.5011,-62.06162 16.9899,-40.27133 17.2993,-41.55849 13.7698,-57.29215 -2.7526,-12.27039 -2.4613,-42.71977 0.576,-60.20785 9.3675,-53.9355 32.3701,-90.40346 74.9446,-118.81593 26.5805,-17.73877 55.9482,-28.55972 94.6074,-34.85962 12.4062,-2.0217 55.8204,-2.901 70.8371,-1.4347 50.3536,4.9168 94.9054,23.30663 128.3638,52.98526 10.5194,9.33098 25.9671,27.6378 33.3053,39.46942 11.6139,18.72537 20.6541,42.02004 25.4797,65.65557 3.5102,17.1925 4.5981,27.94779 4.6025,45.5 v 15 l 3.7545,7.40361 3.7544,7.40361 0.5,22.14461 c 0.5598,24.79148 0.398,24.18999 8.6781,32.26087 3.6362,3.54425 4.3219,4.83117 4.3219,8.11045 0,2.50856 -0.891,5.21076 -2.5,7.58172 -1.375,2.02617 -2.5,4.01695 -2.5,4.42394 0,0.40699 1.3946,1.56379 3.0992,2.57067 3.0433,1.79774 5.9045,6.80409 5.8971,10.31841 0,0.98016 -1.3504,4.48211 -2.9963,7.78211 -3.1709,6.35784 -3.9824,13.44558 -1.75,15.28514 0.6875,0.56651 6.425,1.54299 12.75,2.16996 14.48,1.43533 20.8081,4.01337 23.4339,9.54683 1.1396,2.40143 1.6149,5.09132 1.3054,7.38732 -0.4995,3.70581 -11.077,30.69809 -23.6385,60.32227 -17.0825,40.2864 -17.1756,40.6666 -14.1522,57.7885 4.8572,27.5066 0.909,67.7041 -9.4293,96.00005 -6.2011,16.9725 -9.0048,22.6192 -17.8748,36 -28.9404,43.65773 -80.7033,73.09783 -144.1445,81.98203 -14.5393,2.0361 -46.6208,3.3306 -59.5,2.4008 z m 61.5,-7.2394 c 69.7893,-10.8198 123.2368,-45.8918 148.2895,-97.30683 15.6695,-32.15835 22.2805,-77.31415 16.3735,-111.83835 -3.0814,-18.0096 -3.0282,-18.2556 11.1246,-51.4983 18.4313,-43.29243 26.7124,-64.47315 26.7124,-68.323 0,-6.45318 -6.0737,-9.47478 -21.5,-10.696 -4.4,-0.34832 -9.4703,-1.08653 -11.2674,-1.64046 -6.8839,-2.12191 -8.0626,-11.55166 -2.7542,-22.03529 3.6402,-7.18929 3.0231,-9.72987 -3.5021,-14.4178 -2.737,-1.96629 -4.9763,-3.81582 -4.9763,-4.11007 0,-0.29425 1.575,-2.27833 3.5,-4.40908 5.1767,-5.72996 4.8493,-9.11455 -1.4854,-15.35395 -7.3535,-7.24296 -8.0856,-10.29758 -7.9468,-33.15706 0.097,-15.99756 -0.1573,-19.60278 -1.6172,-22.92042 l -1.7325,-3.93689 -0.8813,4.5 c -4.8889,24.9614 -6.3933,31.39944 -9.7558,41.75086 -4.2297,13.02095 -14.6426,35.24914 -16.5126,35.24914 -0.6426,0 -1.6919,-0.5235 -2.3317,-1.16333 -0.8845,-0.88445 -0.1109,-3.10196 3.2269,-9.25 11.4973,-21.17755 19.0421,-49.64577 21.5349,-81.25589 2.5765,-32.67181 -4.8,-73.88962 -18.582,-103.83078 -1.519,-3.3 -5.6055,-10.80351 -9.0812,-16.67448 -29.3299,-49.54306 -80.8114,-81.85247 -146.5384,-91.96647 -11.8855,-1.8289 -18.6822,-2.2082 -40.2969,-2.2488 -26.3294,-0.049 -33.6727,0.5506 -54.8049,4.4782 -57.8174,10.74596 -105.9629,42.08842 -132.1273,86.01414 -18.4418,30.96087 -27.7782,82.82434 -21.4737,119.28632 3.3328,19.27532 3.4633,18.70353 -13.6052,59.61109 -23.4032,56.08971 -24.9707,60.32868 -23.8081,64.38243 1.3947,4.86324 5.6835,6.6274 19.6436,8.08027 6.7831,0.70593 13.3481,1.82683 14.5889,2.4909 3.1593,1.69081 5.3028,7.30721 4.5221,11.84908 -0.3496,2.03353 -1.9752,6.33297 -3.6125,9.55432 -2.585,5.08598 -2.8255,6.22238 -1.8271,8.63272 0.6323,1.52665 3.142,4.20646 5.577,5.95514 4.0367,2.89895 5.8451,6.05514 3.4694,6.05514 -1.2562,0 -6.0422,8.19546 -6.0422,10.34655 0,0.91896 2.4186,4.3016 5.3746,7.51699 2.956,3.21539 5.9519,7.59568 6.6576,9.73398 0.8614,2.6101 1.3134,10.6271 1.3755,24.3951 0.076,16.9326 0.3755,21.0188 1.7166,23.4412 1.4486,2.6167 1.6867,2.7248 2.2017,1 0.3176,-1.0636 1.0781,-5.7588 1.6901,-10.4338 2.3297,-17.7988 9.6581,-41.5179 18.0698,-58.48465 2.8935,-5.83644 5.6761,-10.86828 6.1835,-11.18186 0.5074,-0.31358 1.5409,0.0482 2.2966,0.80391 1.1654,1.16543 0.5731,2.97205 -3.9013,11.89788 -16.6459,33.20702 -23.8894,77.91002 -19.1663,118.28582 7.3063,62.45995 37.4297,111.68338 87.2612,142.58988 25.967,16.1052 57.7789,27.0439 90.2404,31.0298 14.7941,1.8165 16.0001,1.8612 41.5,1.5365 18.7981,-0.2394 28.225,-0.8184 38,-2.3338 z m -151.5,-241.59648 c 0,-26.5878 0.3884,-29.387 4.3605,-31.4251 1.3517,-0.6936 11.8383,-1.1943 28.4793,-1.3599 26.3307,-0.2619 26.3404,-0.2628 28.25,-2.6228 1.7433,-2.15445 1.9102,-4.17679 1.9102,-23.13922 0,-18.33209 -0.206,-21.02265 -1.75,-22.85276 -1.6885,-2.00141 -2.7518,-2.08061 -30.25,-2.25324 -15.675,-0.0984 -29.0625,-0.38795 -29.75,-0.64344 -0.6875,-0.25549 -1.25,-1.09139 -1.25,-1.85754 0,-1.1598 5.0336,-1.39302 30.0658,-1.39302 18.7085,0 30.7925,0.38895 31.9896,1.02965 4.3918,2.3504 4.9446,5.57771 4.9446,28.86493 0,21.80214 -0.021,22.01834 -2.4113,24.79964 l -2.4113,2.8058 -27.6709,0.5 c -25.921,0.4684 -27.7606,0.6227 -29.0887,2.4411 -2.0689,2.8326 -2.0684,44.2861 5e-4,47.1177 1.341,1.8353 3.0593,1.9571 31.5,2.2333 25.5533,0.2481 30.0817,0.5115 30.0817,1.75 0,1.2482 -4.8185,1.4579 -33.5,1.4579 h -33.5 z m 116,23.953 c 0,-1.2987 3.8739,-1.5 28.8652,-1.5 27.6879,0 28.9726,-0.085 31.5,-2.0726 l 2.6348,-2.0726 -0.022,-17.6774 c -0.019,-15.1828 -0.2892,-18.2662 -1.9162,-21.8495 -3.3146,-7.3004 -4.8673,-7.7826 -26.2643,-8.1558 -14.7985,-0.2582 -18.7975,-0.6106 -18.7975,-1.6564 0,-1.0451 3.9989,-1.4017 18.75,-1.672 17.5164,-0.3211 18.9563,-0.4909 21.8863,-2.5808 5.3561,-3.82057 6.3637,-8.12291 6.3637,-27.17237 0,-14.5937 -0.236,-17.15411 -1.75,-18.98295 -1.7001,-2.05372 -2.5904,-2.121 -31.2367,-2.36078 -27.174,-0.22746 -29.513,-0.38407 -29.8233,-1.99682 -0.3147,-1.63579 1.655,-1.75 30.1809,-1.75 h 30.5176 l 2.8057,2.41144 2.8058,2.41145 0.3096,20.23311 0.3096,20.23311 -3.0596,4.92189 c -1.6828,2.70702 -3.0514,5.67952 -3.0414,6.60542 0.01,0.926 1.36,3.6638 3,6.0841 l 2.9818,4.4004 v 19.9265 19.9264 l -2.9231,2.9231 -2.9231,2.9231 h -30.5769 c -26.5128,0 -30.5769,-0.1994 -30.5769,-1.5 z m 148.7071,-9.5795 c -11.9862,-6.0349 -21.5865,-11.2983 -21.3341,-11.6965 0.7643,-1.2058 38.5046,-19.6798 39.0629,-19.1215 0.2855,0.2855 1.6591,8.5918 3.0524,18.4583 1.3933,9.8665 2.7892,19.1767 3.102,20.6892 0.3967,1.9184 0.1666,2.7338 -0.7608,2.6964 -0.7312,-0.029 -11.1363,-4.9911 -23.1224,-11.0259 z m 17.7027,-1.1705 c -2.0412,-14.1326 -3.4312,-22.1048 -3.9434,-22.617 -0.7544,-0.7544 -23.8002,11.0436 -24.1572,12.367 -0.3068,1.1371 24.2547,14.2667 26.9526,14.4078 1.5105,0.079 1.6743,-0.5141 1.148,-4.1578 z M 476.51889,663.76 c -5.4457,-2.25704 -5.357,-1.33162 -5.357,-55.8543 v -50.3775 l 3.4462,-3.44619 3.4462,-3.4462 27.1373,0.2962 27.1373,0.29619 2.9429,3.29537 2.943,3.29536 -0.2764,50.92748 -0.2765,50.92748 -2.2762,2.27716 c -2.2458,2.24681 -2.639,2.27995 -29.5,2.48715 -14.9731,0.11549 -28.1881,-0.1897 -29.3668,-0.6782 z m 55.643,-5.0318 c 1.9455,-1.94549 2,-3.33333 2,-50.92742 v -48.92742 l -2.6945,-2.11953 c -2.6091,-2.05228 -3.5003,-2.11012 -28.082,-1.82258 -23.7891,0.27826 -25.4766,0.41916 -26.8054,2.23808 -1.1786,1.61336 -1.4181,10.25777 -1.4181,51.1933 v 49.25217 l 2.2225,1.5567 c 1.8693,1.30927 6.2404,1.5567 27.5,1.5567 23.9442,0 25.383,-0.10549 27.2775,-2 z m 55,4 c 0,-1.9548 0.6667,-2 29.5,-2 28.1667,0 29.5904,-0.0904 31.5,-2 1.8413,-1.84129 1.9996,-3.32917 1.9945,-18.75 -0.01,-18.9412 -0.7028,-22.63737 -5.0513,-26.80684 l -3.0696,-2.94316 -19.4368,-0.30942 c -18.2511,-0.29055 -19.4368,-0.42418 -19.4368,-2.19058 0,-1.76639 1.1857,-1.90002 19.4368,-2.19057 l 19.4368,-0.30943 3.0696,-2.94315 c 4.3459,-4.16703 5.0449,-7.86669 5.0513,-26.73427 l 0.01,-16.67742 -2.6349,-2.07258 c -2.5278,-1.98832 -3.8113,-2.07258 -31.5733,-2.07258 -27.0221,0 -28.9162,-0.11589 -28.6018,-1.75 0.3097,-1.61035 2.6497,-1.77389 29.3233,-2.04938 31.6301,-0.32668 33.8957,0.0122 36.369,5.44056 0.7002,1.53674 1.1177,9.66254 1.1177,21.7554 v 19.30246 l -2.9819,4.40048 c -3.3689,4.97182 -3.7834,8.02094 -1.3632,10.02804 3.6494,3.02654 4.3451,7.2517 4.3451,26.38999 0,20.30117 -0.7416,23.67328 -5.613,25.52542 -1.3959,0.53069 -15.6299,0.95703 -31.9521,0.95703 -28.7683,0 -29.4349,-0.0453 -29.4349,-2 z m -209.271,-14.29092 c -1.0232,-2.72683 -6.1159,-40.65543 -5.5367,-41.23463 0.4864,-0.48641 44.1238,20.60106 45.6656,22.0676 0.1969,0.18723 -8.6495,4.84845 -19.6587,10.35827 -13.0971,6.55478 -20.1734,9.59988 -20.4702,8.80876 z m 17.28,-12.43734 c 6.053,-3.15055 10.8608,-6.18805 10.684,-6.75 -0.4208,-1.33684 -26.6679,-14.88015 -27.4065,-14.14153 -0.3116,0.31156 0.1727,6.09097 1.0761,12.84313 0.9034,6.75217 1.6414,12.61416 1.64,13.02666 -0.01,1.71931 3.6029,0.43664 14.0064,-4.97826 z"
       id="path4" /></g></svg>
