<?xml version="1.0" encoding="UTF-8" standalone="no"?>
<!-- Created with Inkscape (http://www.inkscape.org/) -->

<svg
   version="1.1"
   id="svg1"
   width="524.11792"
   height="522.88245"
   viewBox="0 0 524.11792 522.88245"
   sodipodi:docname="1.png"
   xml:space="preserve"
   xmlns:inkscape="http://www.inkscape.org/namespaces/inkscape"
   xmlns:sodipodi="http://sodipodi.sourceforge.net/DTD/sodipodi-0.dtd"
   xmlns="http://www.w3.org/2000/svg"
   xmlns:svg="http://www.w3.org/2000/svg"><defs
     id="defs1" /><sodipodi:namedview
     id="namedview1"
     pagecolor="#ffffff"
     bordercolor="#000000"
     borderopacity="0.25"
     inkscape:showpageshadow="2"
     inkscape:pageopacity="0.0"
     inkscape:pagecheckerboard="0"
     inkscape:deskcolor="#d1d1d1"
     showgrid="false"><inkscape:page
       x="0"
       y="0"
       width="524.11792"
       height="522.88245"
       id="page2"
       margin="0"
       bleed="0" /></sodipodi:namedview><g
     inkscape:groupmode="layer"
     inkscape:label="Image"
     id="g1"
     transform="translate(-286.08432,-386.53214)"><path
       style="fill:#000000;stroke-width:1.79685"
       d="m 311.08813,908.06693 c 0.018,-0.7412 1.6745,-6.60339 3.6927,-13.02712 6.7991,-21.64119 10.6589,-50.52385 10.6589,-79.76072 0,-33.47614 -1.8567,-41.60258 -16.0559,-70.27599 -15.2651,-30.82567 -18.0734,-37.89854 -20.9315,-52.71583 -3.1851,-16.5134 -3.1637,-24.91982 0.1042,-40.33722 4.1763,-19.70907 12.4863,-34.4014 28.778,-50.88063 15.7467,-15.92779 31.1654,-24.87856 53.0273,-30.78286 18.0173,-4.86599 59.2341,-4.36819 77.7882,0.93948 30.4427,8.70857 56.0199,27.14842 67.4798,48.64918 3.121,5.85553 6.9519,11.13659 8.513,11.7357 3.9412,1.51237 17.4347,1.3157 19.6147,-0.2859 0.9882,-0.72607 1.9946,-5.60268 2.2363,-10.83693 0.5975,-12.94071 -7.851,-34.68498 -18.5039,-47.62508 -11.9558,-14.52282 -10.746,-23.91323 3.6896,-28.63562 6.0617,-1.98294 7.1152,-3.04833 6.7258,-6.80173 -1.4842,-14.31109 0.7516,-28.53304 5.2567,-33.43741 3.2435,-3.53084 3.3462,-4.66828 1.3124,-14.51488 -1.985,-9.61038 -1.861,-11.38051 1.2335,-17.61783 4.8359,-9.74737 13.1285,-13.4455 34.415,-15.34764 9.647,-0.86206 18.5507,-1.59621 19.786,-1.63147 4.7065,-0.13422 9.4335,-7.19854 9.4335,-14.0975 0,-4.15693 2.4088,-11.74425 6.1324,-19.3161 7.2821,-14.80811 9.1551,-23.31194 6.6092,-30.00805 -1.5245,-4.00959 -1.3717,-4.92264 0.8237,-4.92264 7.8838,0 6.7304,18.25109 -2.1575,34.14009 -2.4876,4.4472 -5.3029,12.9373 -6.2561,18.86689 -2.6291,16.35445 -6.0886,18.95381 -27.8845,20.95171 -22.9848,2.10689 -30.165,4.15308 -34.67,9.88034 -4.0512,5.15026 -4.8492,15.46152 -1.9728,25.49091 1.516,5.28578 1.1753,6.48965 -2.9058,10.27205 -6.6435,6.15697 -4.5134,10.1261 5.2273,9.74033 10.5572,-0.41811 11.3378,-0.25238 9.1442,1.94135 -1.051,1.05087 -5.862,2.49201 -10.6912,3.20252 l -8.7807,1.29184 0.5624,10.40249 c 0.6156,11.38304 -1.4078,15.5357 -7.5699,15.5357 -5.337,0 -11.8593,4.9037 -11.8593,8.91613 0,1.82698 2.959,6.83476 6.5753,11.1284 10.3089,12.23901 19.1084,32.65196 20.0187,46.43881 0.9149,13.85803 2.4119,16.17162 10.4643,16.17162 5.1799,0 6.9784,-1.2539 12.2417,-8.53503 10.2747,-14.21384 18.8119,-17.61961 53.1202,-21.19152 42.3743,-4.41167 56.1969,-8.12491 50.7609,-13.63617 -2.6189,-2.65532 -3.0162,-8.74584 -0.5703,-8.74584 0.9218,0 2.1605,1.52701 2.7528,3.39336 2.3828,7.50744 9.4634,12.77826 17.166,12.77826 9.734,0 14.0896,-2.5498 17.2414,-10.09298 3.439,-8.23055 0.7685,-18.34069 -7.2089,-27.29342 -3.2523,-3.64999 -8.8127,-11.21331 -12.356,-16.80738 -3.5434,-5.59409 -8.1162,-10.7022 -10.1616,-11.35139 -8.4417,-2.67929 -14.9465,4.09035 -11.0058,11.45377 2.4902,4.65306 2.3941,5.57653 -0.581,5.57653 -1.3623,0 -3.4799,-2.42096 -4.7055,-5.37992 -1.8844,-4.54895 -1.7647,-6.08784 0.7742,-9.96287 7.3283,-11.18408 20.6877,-8.66288 28.9682,5.46689 2.7136,4.63057 8.3721,12.44698 12.5742,17.36982 5.4322,6.36403 8.3397,11.89694 10.0614,19.14605 2.0067,8.4497 3.0366,10.12945 6.0149,9.81026 36.4961,-3.91138 41.6146,-3.12156 52.7633,8.14173 21.0546,21.27089 20.014,59.67371 -2.4708,91.18888 -20.3633,28.54167 -57.3802,43.95654 -99.6734,41.50664 -35.0818,-2.03218 -60.9289,-12.57667 -82.3816,-33.60826 -12.0579,-11.82113 -18.3296,-14.98374 -21.0346,-10.60704 -1.6529,2.67457 7.352,15.08435 17.0479,23.49389 4.4952,3.89885 15.4504,10.70856 24.3448,15.13266 63.2032,31.43747 146.3592,12.21012 177.5772,-41.05942 8.6183,-14.70588 12.5041,-29.50123 12.6029,-47.98435 0.1186,-22.26031 -2.6645,-31.28276 -21.3429,-69.1786 -20.2451,-41.07424 -21.5189,-46.19421 -21.2333,-85.35023 0.3225,-44.24398 8.6926,-86.05413 17.5697,-87.76368 2.664,-0.51306 3.0626,0.0395 1.9334,2.68043 -5.2306,12.23248 -9.9522,34.32962 -12.6,58.9669 -5.1521,47.94045 -1.6215,67.86849 19.4667,109.87495 21.0639,41.95815 25.7822,62.60511 20.2785,88.7387 -8.9888,42.6823 -41.643,74.40141 -89.1367,86.58373 -21.3681,5.48103 -55.6546,5.44881 -77.2644,-0.0726 -31.0042,-7.92176 -56.4138,-23.5986 -70.404,-43.4369 -4.2138,-5.97495 -9.3172,-11.27917 -11.3414,-11.78716 -2.0239,-0.508 -9.3147,-0.68032 -16.2014,-0.38294 l -12.5215,0.54069 -1.3682,9.54764 c -1.233,8.60441 -0.7686,10.84512 4.6999,22.68102 3.3374,7.22338 9.4025,17.35186 13.4779,22.50775 4.0757,5.15591 7.4101,11.32321 7.4101,13.70513 0,4.62088 -5.6784,11.51815 -9.4829,11.51815 -1.2625,0 -3.9876,1.18521 -6.0557,2.6338 -3.3731,2.36267 -3.5634,3.37137 -1.8479,9.7984 1.4578,5.46193 1.3575,8.2013 -0.4223,11.52686 -1.284,2.39926 -1.8311,5.94873 -1.2157,7.88775 0.7031,2.21499 -0.2767,5.29976 -2.6356,8.29868 -3.1686,4.02815 -3.5704,6.24796 -2.5742,14.22088 1.0124,8.10299 0.6136,10.16819 -2.8018,14.5102 -5.5147,7.01087 -10.6003,8.62014 -31.7844,10.05785 -15.8825,1.07788 -19.0081,1.82729 -22.9098,5.49284 -3.626,3.40648 -4.5183,5.97147 -4.5183,12.98929 0,6.37346 -1.5813,11.76985 -5.8314,19.90132 -4.8324,9.24536 -5.8106,13.07296 -5.7096,22.34223 0.099,9.08017 -0.3254,10.81431 -2.2543,9.2135 -4.2652,-3.53983 -2.8885,-19.30928 2.722,-31.18013 2.8216,-5.96999 5.5837,-15.53031 6.1898,-21.42356 1.804,-17.5448 9.8487,-22.34213 37.7652,-22.52092 13.5727,-0.087 21.8968,-3.32106 23.7745,-9.2371 0.6646,-2.09425 0.6736,-8.08785 0.02,-13.3191 -1.0541,-8.4365 -0.7517,-9.81729 2.6759,-12.21818 2.238,-1.56753 3.5801,-4.0999 3.1887,-6.0167 -0.5523,-2.70489 -2.2245,-3.25675 -9.1477,-3.01901 -9.1919,0.31563 -11.523,-2.28618 -3.5308,-3.94058 15.1932,-3.14495 15.7576,-3.48362 15.0667,-9.04245 -1.7546,-14.11795 -1.3493,-15.86867 4.2494,-18.34857 9.7015,-4.29727 10.7751,-5.20755 11.2869,-9.56961 0.3327,-2.83742 -2.219,-7.93993 -7.4659,-14.92839 -10.4983,-13.98272 -18.1465,-32.86595 -16.7637,-41.38828 1.6131,-9.93924 -1.9073,-12.21623 -17.4155,-11.26445 -7.0214,0.43092 -17.2397,2.46252 -22.7075,4.51468 -5.4678,2.05216 -20.0223,5.03852 -32.3433,6.63635 -28.5486,3.70231 -46.6554,7.79264 -47.8096,10.80024 -0.498,1.29804 -0.1042,5.26361 0.876,8.81238 2.3866,8.64343 -0.529,8.25644 -5.0854,-0.675 -4.0248,-7.88926 -8.1919,-10.84117 -15.304,-10.84117 -16.7915,0 -22.3829,16.51703 -11.2302,33.17432 3.2118,4.79711 8.7644,13.64766 12.3389,19.66789 7.3067,12.30558 12.9017,15.61207 20.5338,12.13465 4.2981,-1.95831 4.6098,-2.78524 3.5082,-9.30566 -0.7268,-4.30185 -0.506,-7.15633 0.5534,-7.15633 2.3003,0 3.9439,4.43806 3.9439,10.64955 0,6.85022 -5.1201,10.91261 -13.7538,10.91261 -8.2764,0 -10.9464,-2.39319 -21.0489,-18.86689 -3.6363,-5.9296 -8.3069,-12.92395 -10.3788,-15.543 -2.072,-2.61907 -4.7444,-9.08771 -5.939,-14.37477 l -2.1716,-9.61287 -16.432,0.64707 c -15.073,0.59353 -17.0904,0.26128 -24.3915,-4.01752 -22.3898,-13.12128 -23.9063,-55.9606 -3.0541,-86.26833 28.825,-41.89578 93.5029,-54.10164 146.4233,-27.63266 12.2469,6.12554 28.2078,20.49952 33.7886,30.4291 2.1154,3.76396 5.2056,7.27498 6.867,7.80227 4.4503,1.4125 8.9174,-0.84567 8.9174,-4.50788 0,-4.4986 -14.24,-23.33639 -22.6343,-29.94244 -40.0875,-31.54762 -107.2637,-35.66989 -151.0888,-9.27159 -23.165,13.95362 -42.8911,42.51725 -47.401,68.6376 -4.1558,24.06845 0.6235,44.83138 18.2488,79.28024 14.2811,27.91251 17.2028,36.64066 19.6206,58.61255 4.2938,39.02132 -7.7269,114.78316 -18.2121,114.78316 -0.8673,0 -1.5665,-0.60644 -1.5537,-1.34764 z M 714.45703,716.113 c 43.0216,-10.3408 73.3943,-45.99093 73.2536,-85.98182 -0.065,-18.2667 -8.5625,-35.40746 -20.6605,-41.6717 -11.2846,-5.84319 -41.4729,-2.39632 -54.3899,6.21017 -6.4574,4.30244 -8.6475,4.75063 -21.5622,4.41244 -7.9061,-0.20701 -18.822,0.39272 -24.2574,1.33274 -5.4355,0.94002 -21.4222,2.92142 -35.526,4.4031 -14.104,1.4817 -29.2315,3.59744 -33.6167,4.70165 -10.5687,2.66122 -20.6267,11.50936 -22.2653,19.58689 l -1.2757,6.28896 h -37.5117 -37.5117 l -4.2725,-8.07159 c -12.6951,-23.98335 -43.7392,-40.38902 -80.5527,-42.5691 -23.536,-1.3938 -39.2519,1.39638 -57.5842,10.22346 -37.3326,17.97578 -57.9178,61.19816 -44.4945,93.42422 3.7154,8.91933 11.0433,15.93347 18.8394,18.03279 10.0689,2.71123 31.2418,-0.96449 40.0498,-6.95286 5.9707,-4.05933 8.7147,-4.73047 17.9685,-4.39489 6.0068,0.21785 18.6031,-1.14942 27.9916,-3.03836 9.3885,-1.88895 25.342,-4.32959 35.4521,-5.42366 20.1456,-2.18007 35.5771,-6.10586 39.5271,-10.05574 2.0558,-2.05594 11.1334,-2.54206 47.4701,-2.54206 h 44.9284 l 11.9932,12.21887 c 28.1821,28.71219 74.2754,40.37799 118.0072,29.86649 z m -83.9018,-24.18887 c -4.5625,-4.56263 -5.2755,-6.39724 -4.3277,-11.13637 1.7505,-8.75235 6.0453,-13.96035 14.652,-17.76757 7.7978,-3.44929 7.8413,-3.51856 4.3863,-6.97359 -8.1638,-8.16387 -5.8609,-23.28624 5.2362,-34.38328 7.2552,-7.25509 15.893,-9.88618 26.1434,-7.96319 13.7788,2.58492 18.4587,20.55711 8.2098,31.52859 -3.071,3.28745 -6.7017,5.4598 -8.535,5.10674 -5.1659,-0.99488 -3.6535,-5.60738 2.3487,-7.16272 9.6634,-2.50406 12.9304,-15.82741 5.5752,-22.73728 -12.5883,-11.82613 -35.8381,4.17516 -36.1418,24.87399 -0.1455,9.95182 1.5239,12.33974 10.0369,14.35238 l 6.0061,1.42003 -5.8974,0.18393 c -9.1983,0.28688 -17.9399,4.79826 -21.9075,11.3061 -6.7991,11.15175 -3.6417,21.54536 7.1412,23.50783 3.6991,0.67322 3.4368,0.86074 -1.4859,1.06224 -4.4612,0.18261 -7.364,-1.14127 -11.4405,-5.21783 z m 56.5626,2.81 c -6.4706,-2.8134 -8.705,-8.42189 -7.1567,-17.96362 2.1856,-13.46749 13.3939,-22.66879 37.32,-30.6369 14.2419,-4.743 27.0473,-12.52654 30.1517,-18.3273 1.5336,-2.86565 0.8212,-3.21485 -6.6447,-3.25679 -4.5996,-0.0259 -12.1846,-1.19524 -16.856,-2.59865 -11.04,-3.3168 -17.4028,-1.2034 -21.6009,7.17488 -1.7281,3.44833 -3.1431,4.97425 -3.1445,3.39094 0,-4.67396 7.8033,-14.89081 13.4575,-17.60928 4.1859,-2.01258 6.6129,-2.10296 12.0616,-0.44921 22.1476,6.72207 20.7291,6.55224 27.5509,3.29922 l 6.458,-3.07965 -3.262,5.58216 c -7.5207,12.86988 -15.0707,19.36018 -33.3545,28.67241 -28.3867,14.45792 -35.4923,21.19404 -35.4923,33.64689 0,7.35187 3.7452,11.48065 11.8263,13.03765 l 7.0406,1.35652 -6.289,0.13638 c -3.4589,0.0749 -8.8886,-0.99404 -12.066,-2.37556 z m -30.8749,-3.24796 c 4.7448,-3.18899 6.3059,-5.66081 7.004,-11.08984 0.9625,-7.48514 5.3905,-11.22231 5.3905,-4.5496 0,5.5703 -5.0362,13.36844 -10.8526,16.80426 -7.4321,4.3902 -8.5499,3.54557 -1.5419,-1.16482 z m 54.414,0.3513 c 6.3206,-4.97172 9.9534,-12.31865 8.8767,-17.95136 -0.5304,-2.77446 0.1797,-5.44271 1.8063,-6.79316 3.7592,-3.11982 5.442,0.23608 3.9924,7.96208 -1.2065,6.43192 -12.9699,20.53478 -17.1283,20.53478 -1.2745,0 -0.1707,-1.68856 2.4529,-3.75234 z m -368.0453,-14.61593 c -6.3657,-9.08829 -0.7094,-36.15474 11.5469,-55.25457 7.4422,-11.59752 17.9482,-20.93091 26.0919,-23.17949 21.4487,-5.92226 25.4669,16.98793 8.8938,50.70988 -5.9698,12.14717 -16.9399,25.28163 -24.2903,29.08267 -7.9408,4.10631 -18.8825,3.43803 -22.2423,-1.35849 z m 22.181,-4.14551 c 7.4666,-6.74558 19.6802,-28.43567 25.4418,-45.18229 12.1909,-35.43349 -8.8103,-38.33395 -28.9381,-3.9966 -8.0197,13.68118 -16.0913,36.3275 -16.0913,45.14662 0,12.02709 8.7456,13.82742 19.5876,4.03227 z m 36.9315,3.72857 c -2.4257,-2.42575 -4.3557,-5.45792 -4.2889,-6.73818 0.066,-1.28025 0.9734,-0.56599 2.0145,1.58728 2.9509,6.10386 11.0341,8.69426 19.3526,6.20198 20.5226,-6.14877 29.4936,-41.56182 10.5286,-41.56182 -3.0602,0 -4.8102,-0.75475 -4.1662,-1.79685 0.6108,-0.98826 3.6907,-1.80876 6.8442,-1.82333 7.8991,-0.0365 13.8691,-3.41845 18.707,-10.59728 5.2816,-7.83753 5.1871,-13.60524 -0.3136,-19.10588 -3.7752,-3.77521 -3.9498,-4.41045 -1.2116,-4.41045 1.7593,0 5.0677,1.98935 7.3518,4.42075 8.2127,8.74204 1.7104,25.1464 -11.9214,30.07571 -5.4906,1.98541 -8.156,5.03417 -4.4012,5.03417 3.059,0 6.0711,10.86142 5.0738,18.29604 -1.967,14.66514 -14.0264,24.82829 -29.4606,24.82829 -7.9014,0 -10.5158,-0.81722 -14.109,-4.41043 z m -5.4656,-13.55804 c 0.5534,-2.47066 1.0172,-5.39257 1.0306,-6.49314 0.041,-3.32612 9.2579,-11.47533 12.9792,-11.47533 5.6762,0 3.1677,6.18789 -2.7858,6.87179 -3.9378,0.45232 -5.8748,2.26265 -8.6518,8.08581 -1.9681,4.12664 -3.1255,5.48154 -2.5722,3.01087 z m 21.6101,-41.86134 c -2.2958,-5.98285 11.4955,-22.84046 18.6642,-22.81406 1.7794,0.007 0.8063,1.12878 -2.3839,2.74918 -7.6912,3.90679 -11.8442,9.43373 -10.6535,14.17814 1.2404,4.94228 -3.9182,10.33924 -5.6268,5.88674 z m 105.2243,129.97532 c 0,-2.10607 8.6334,-4.61184 10.2658,-2.97953 1.5087,1.5087 0.4893,2.19621 -5.3245,3.59094 -2.8866,0.6925 -4.9413,0.43827 -4.9413,-0.61141 z m -127.2878,-4.64514 c -1.1467,-2.51717 -2.0852,-6.92641 -2.0852,-9.79835 0,-4.16031 -1.2276,-5.80428 -6.0399,-8.08786 -6.4349,-3.05354 -10.7101,-9.87608 -8.9929,-14.3512 1.1689,-3.04566 13.2359,-3.88415 13.2359,-0.91972 0,0.98827 -2.0214,1.79685 -4.4921,1.79685 -6.7416,0 -5.5436,4.6817 2.4967,9.75733 5.6671,3.57741 7.1578,5.70578 7.8819,11.25284 0.4911,3.76253 1.4835,8.66027 2.2049,10.88386 1.8094,5.57576 -1.624,5.14041 -4.2093,-0.53375 z m 297.9882,-165.91421 c 0,-0.87302 1.6171,-2.01019 3.5937,-2.52705 5.8545,-1.53097 4.0944,-4.86992 -2.5668,-4.86992 -8.7379,0 -12.3278,-4.18261 -10.8909,-12.68831 0.667,-3.94746 0.2907,-8.41402 -0.8955,-10.63035 -1.1251,-2.10231 -1.7491,-5.19502 -1.3865,-6.87268 0.4582,-2.1203 1.8391,-0.78974 4.5288,4.36396 2.8106,5.38492 3.5806,9.19652 2.8131,13.92557 -1.0447,6.4376 -0.9859,6.51127 5.189,6.51127 3.7687,0 7.4249,1.3032 9.2192,3.28598 3.6695,4.05473 3.6819,4.73351 0.151,8.26519 -3.0187,3.01867 -9.7544,3.87238 -9.7544,1.23634 z m -153.6304,-26.87882 c 2.5479,-2.50926 9.6172,-3.32438 10.2503,-1.18189 0.2919,0.98826 -2.2993,2.05665 -5.7582,2.37417 -4.1418,0.38021 -5.6755,-0.0268 -4.4921,-1.19228 z"
       id="path5" /></g></svg>
